<?xml version="1.0" encoding="UTF-8"?>
<svg version="1.1" viewBox="0 0 2048 1021" width="920" height="459" xmlns="http://www.w3.org/2000/svg">
<path transform="translate(0)" d="m0 0h2048v1021h-2048z" fill="#F7F6F6"/>
<path transform="translate(657)" d="m0 0h5l6 5 4 11 2 7 5 34 5 43 1 5v29l-3 11-4 7-5 5-7 5-16 5-6 4-2 6 9 3 11 6 17 13 13 11 8 9 7 10 8 14 8 17 7 21 7 23 7 32 4 18 3 15 3 13 11 44 10 33 6 18 4 13 2 14 10 16 8 14 8 16 10 24 7 25 1 10 7-3 11-5 8-3h14l6 3 4 5 2 4v20l-6 26-10 25-13 22-12 16-12 14-5 6-4 3-4 18-4 13-7 17-9 16-2 3-1 32-6 23-6 16-4 11-3 10-11 21-10 14-8 9-23 3-9 3-4 1v-4h-20l-2-1v-2l-6-2-3-2v-3h2l-1-2-19-8-11-5-12-4-7-3h-9l-60 10-17 3-9 1-11 5-24 10-22 9-12 5-30 10-21 4h-25l-12-3-16-8-11-8-11-11-4-6v-2h-14l-8-3-7-6v-3l4-1h14l5 2v-3l-7-1-3-1v-2l-4-2-9-7-4-4v-2h18l10 5v-6l-2-5 9 1 3-5-2-4-16-12-21-21-10-13-14-21-10-18-9-19-9-24-5-15-4-16-4-25-1-35-12-18-11-16-13-18-14-20-16-23-7-11-11-15-9-11-12-12-11-9-6-7-4-6v-3h6l8 3 10 3h14l6-4 3-5-1-5-10-3-6-8-4-5-3-5-1-1-1-9-1-2v-7l3-3-2-6-7-15-7-18-7-26v-19l3-10 5-7 6-4 3-1h10l9 5 7 8 8 16 2 7v8l-4 5-7 1-5-5-9-12-2-2-4 1-1 2v9l5 20 9 24 4 9v2l10-5 23-2 5-4 11-5 25-5 9-1h27l15 2 22 5 12 4 5 2 1-4 10-14-1-7-7-15-6-20-4-22-2-15-1-38 3-7 5-6 5-3 10-1 7-3h10l8 2v-10l4-18 3-9 5-11 5-9-15-5-8-5-10-10v-2l22-1 14-5 13-9 22-22 7-8 13-13 16-11 13-4h18l17-5 11-2 12-21 2-3 5 1 2 1v8l-5 10-3 5 7 1 7 4 5 6 2 5v11l-1 4 6-1h16l-1-10-12-16-4-9v-15l2-10 6-18 8-16 9-17 11-19 8-8h7l5 5 5 12 3 14 3 16 5-5 15-20 12-17 7-9 8-7z" fill="#8D8771"/>
<path transform="translate(1299,535)" d="m0 0h8l4 4 1 3v21l-9 48-8 21-8 11-8 6 4 6 9 14 7 16 9 31 12 46 5 25v4l10-4 14-6h13l6 7 1 2v18l-4 16-7 14-12 13-10 9-4 3h-2l3 25 2 19 1 19 18 5 13 4 15 7 11 7 7 7 2 3v9l-7 9-9 6-14 7-11 4-24 7-22 4-21 3-18 1-1 1h-66v-2h-13l-27-3-24-5-16-4-17-6-15-8-13-13v-9l3-6 7-6 10-4-4-4-5-2v-2h9v-4l5 1 4 2v-8l5-20 3-8-1-4-5-5-6-9-6-16-4-15-3-18-1-1-1-16v-47l-1-4-10 4-9 2h-14l-12-3-11-6-7-7-6-10-4-11v-16l4-9 5-6 10-6 4-1h14l10 2 16 8 8 8 2 1 4-23 1-1v-7l4-6h17l3 1v-6l5-13 9-15 11-12 9-8 8-4 11-4 9-2 16-1-1-7v-12l4-10 11-16 9-10 17-17 8-5h6l5 5 1 3v17l6-4 14-11 10-7z" fill="#7093D0"/>
<path transform="translate(657)" d="m0 0h5l6 5 4 11 2 7 5 34 5 43 1 5v29l-3 11-4 7-5 5-7 5-16 5-6 4-2 6 9 3 11 6 17 13 13 11 8 9 7 10 8 14 8 17 7 21 7 23 7 32 4 18 3 15 3 13 11 44 10 33 6 18 4 13 2 14 10 16 8 14 8 16 10 24 7 25 1 10 7-3 11-5 8-3h14l6 3 4 5 2 4v20l-6 26-10 25-13 22-12 16-12 14-5 6-4 3-4 18-4 13-7 17-9 16-2 3-1 32-6 23-6 16-4 11-3 10-11 21-10 14-8 9-23 3-9 3-4 1v-4h-20l-2-1v-2l-6-2-3-2v-3h2l-1-2-19-8-11-5-12-4-7-3h-9l-60 10-17 3-9 1-11 5-24 10-22 9-12 5-30 10-21 4h-25l-12-3-16-8-11-8-11-11-4-6v-2h-14l-8-3-7-6v-3l4-1h14l5 2v-3l-7-1-3-1v-2l-4-2-9-7-4-4v-2h18l10 5v-6l-2-5 9 1 3-5-2-4-16-12-21-21-10-13-14-21-10-18-9-19-9-24-5-15-4-16-4-25-1-35-12-18-11-16-13-18-14-20-16-23-7-11-11-15-9-11-12-12-11-9-6-7-4-6v-3h6l8 3 10 3h14l6-4 3-5-1-5-10-3-6-8-4-5-3-5-1-1-1-9-1-2v-7l3-3-2-6-7-15-7-18-7-26v-19l3-10 5-7 6-4 3-1h10l9 5 7 8 8 16 2 7v8l-4 5-7 1-5-5-9-12-2-2-4 1-1 2v9l5 20 9 24 4 9v2l10-5 23-2 5-4 11-5 25-5 9-1h27l15 2 22 5 12 4 5 2 1-4 10-14-1-7-7-15-6-20-4-22-2-15-1-38 3-7 5-6 5-3 10-1 7-3h10l8 2v-10l4-18 3-9 5-11 5-9-15-5-8-5-10-10v-2l22-1 14-5 13-9 22-22 7-8 13-13 16-11 13-4h18l17-5 11-2 12-21 2-3 5 1 2 1v8l-5 10-3 5 7 1 7 4 5 6 2 5v11l-1 4 6-1h16l-1-10-12-16-4-9v-15l2-10 6-18 8-16 9-17 11-19 8-8h7l5 5 5 12 3 14 3 16 5-5 15-20 12-17 7-9 8-7zm0 4-5 4-11 14-10 14-14 19-16 24-7 13-5 10-5 13-2 8v13l5 7 8 6 3 5-1 11-4 10-3 2 4-8 1-7-6-2-14-4-6-1h-35l-2 2-3 7-9 12-15 15-18 12-17 7-8 3-7 2-22 5-25 3h-34l-6 7-7 14-5 20v17l9 5 3 2 1 3-14-8-9-3h-15l-2 1 1 3 10 7 5 6 1 2v6l-3 2h-35v25l1 14 38-4 31-4 16-1v1l-11 2-14 1-3 1-15 2 2 12 4 14 8 21 4 9 5-1v2l-10 3-21 7-14 2-8 11v3l20-1h14l19 2 18 6 13 7h3v2l10 8 11 11 11 15 10 18 7 16 7 23 4 35v55l-2 26-4 28-5 25-4 14-2 10h-2l5-19 6-28 5-36 1-12v-60l-3-31-3-14-8-24-12-23-9-12-9-11-11-10-14-9-9-4-14-4-9-1h-46l-8 13-6 10v3l7 4 8 14 4 11 1 6-9-3-12-9-3-1h-7l-7 14-21 52-7 20-5 19-3 18v9l6 17 6 15 5 13 5 11 6 16 5 10 5 12 10 23 11 23 12 23 12 19 9 14 2 10-10-4-10-8-8-9-10-15-13-21-24-36-11-18-12-20-5-7h-1v12l4 36 4 16 8 27 8 19 8 16 9 16 8 12 10 13 11 13 18 18 11 9 3 3 3-1 7-11 12-14 9-12 10-13 13-16 9-11 8-9v-2h2l7-8 11-11 4-9 7-29 4-12-4 19-3 16-3 10 4-2 10-8 2-1-7 8-8 7-15 14-5 5v2h-2l-9 11-10 11-8 10-11 14-14 18-14 19-11 16 2 1v2l8 5 6 7 2 4v6l-2 3-7 1-7-5-6-10-3-3v14l7 13 2 3 9 1 9 5 8 9 2 7 9 4 6 3 5 1h22l2-1 9-1 9-2 5-2 7-2 21-7 12-5 21-9 13-5 8-4 10-4 17-7 19-10 20-12 11-7 2 2-4 2-15 11-18 10-7 4v1h7l38-7 25-4 35-9 18-7 15-7 22-12 21-14 16-12 13-11 13-13 11-14 10-15 6-11 1-6h2l3-9 3-10 1-8 1-1 2-14 1-2v-47l-5-2-1-6-1-2h-2l-4 14-5 10-10 10-4 1v-12l-3-19-10-4-9-4-10-7-3 1-1 3v11l1 6-6-7-4-10-2-17-8-7-11-11-8-7-11-10-13-10-15-10-21-12-18-8-17-6h-2v-3l23 7 20 9 16 9 12 8 12 9 15 13 32 30 14 12 12 7 7 3 13 1 9-3 8-4 8-8 6-10 5-16 1-9v-11l-2-13-6-25-11-28-10-19-5-9-11-16-8-10-11-13-10-11-7-8-10-11-7-8-13-13-13-10-12-7-10-4 10 3 12 6 11 8 5 4h2l1 3 8 7 12 12 7 8 12 13 14 16h1l-1-9-5-21-4-13-1-6h-2l-1-7-8-27-17-79-7-31-7-25-10-25-7-13-9-13-11-12-8-8-16-12-16-10-7-2v16h-3l1-20 2-6 5-4 6-3 10-3 8-5 5-5 5-12 1-5v-20l-3-35-4-32-3-16-4-17-3-6-2-2z" fill="#151418"/>
<path transform="translate(319,429)" d="m0 0h46l14 2 16 6 13 8 14 12 11 13 9 14 10 19 8 24 3 14 3 31v60l-2 21-6 38-6 25-4 12-10 42-4 9-17 17-1 2h-2l-2 4-13 15-13 16-13 17-10 13-13 16-5 8-4-2-10-9-8-7-16-16-7-9-8-10-10-15-10-18-10-21-6-15-8-28-3-12-4-36v-12l5 5 9 16 8 13 14 22 22 33 13 21 11 14 9 8 9 5 4 1-3-12-15-23-12-21-12-24-11-25-4-8-6-16-3-5-6-16-5-11-5-13-6-15-6-17v-9l4-22 6-21 10-27 17-41 6-12h7l7 4 10 7 7 2-3-12-8-16-5-5-4-2 1-4 10-18z" fill="#FDF9E4"/>
<path transform="translate(1299,535)" d="m0 0h8l4 4 1 3v21l-9 48-8 21-8 11-8 6 4 6 9 14 7 16 9 31 12 46 5 25v4l10-4 14-6h13l6 7 1 2v18l-4 16-7 14-12 13-10 9-4 3h-2l3 25 2 19 1 19 18 5 13 4 15 7 11 7 7 7 2 3v9l-7 9-9 6-14 7-11 4-24 7-22 4-21 3-18 1-1 1h-66v-2h-13l-27-3-24-5-16-4-17-6-15-8-13-13v-9l3-6 7-6 10-4-4-4-5-2v-2h9v-4l5 1 4 2v-8l5-20 3-8-1-4-5-5-6-9-6-16-4-15-3-18-1-1-1-16v-47l-1-4-10 4-9 2h-14l-12-3-11-6-7-7-6-10-4-11v-16l4-9 5-6 10-6 4-1h14l10 2 16 8 8 8 2 1 4-23 1-1v-7l4-6h17l3 1v-6l5-13 9-15 11-12 9-8 8-4 11-4 9-2 16-1-1-7v-12l4-10 11-16 9-10 17-17 8-5h6l5 5 1 3v17l6-4 14-11 10-7zm0 3-14 8-16 12-17 14-13 12-9 9-9 14-1 8 4 3 1 3-14-5h-14l-15 2-18 5-10 6-10 9-10 14-7 14-3 11v4l-5-1h-8l-4 7-6 2-3 11-1 9v28l9-3 12-2h36l15 4-11-1-3-1h-28l-18 2-9 3-6 7-1 2v10l4 10 8 11 12 10 14 8 8 3h7l-1 2-3 1 1 38-22 66-5 20v16l4 8 8 7 7 4 11 4h11v-2l-6-2-5-2v-4l8-1 18-6 22-11 27-16 25-15 16-11 3-2 4 1 3-3-2-1 5-4 1 3 8-4 9-7 4-8-1-2-5 2v-1l8-10 8-13 8-16 8-22v-13l-8-40-9-36-6-23-7-19-7-14-9-12-4-4 6-3 9-9 8-16 4-15 3-18 3-11 2-9 1-9v-16l-3-4z" fill="#16161B"/>
<path transform="translate(775,898)" d="m0 0 13 1 18 4 30 9 16 6 16 8 12 9 6 9 2 4-1 6-7 10-6 5-13 8-21 9-22 7-33 8-35 6-30 4-22 2-4 1-28 2-5 1-41 1-8 1h-55l-1-1-33-1-23-2-19-1-4-1-15-1-15-2-37-5-28-6-28-7-27-9-16-8-12-8-8-8-4-8 1-5 3-6 5-6 10-7 3-1 8 6 6 2 14 1 6 9 10 10 10 7 16 8 12 3h25l25-5 13-4 10-4 14-5 13-6 12-5 13-5 11-5 12-5 12-1 31-5 27-5 13-2h9l15 6 14 5 8 4 13 6v2h-2l1 3 8 4v2l22 1v4l5-3 15-3 16-2 11-13 8-13 9-17z" fill="#AEAAA0"/>
<path transform="translate(1630,626)" d="m0 0h12l14 4 11 7 6 5 9 11 9 10 5 5 5 4 9 3 9 1 1 4-6 9-9 7-8 4-16 4h-28l-14-3-16-6-10-6-11-9-9-10-7-12v-2l-6 5-11 15-13 21-8 17-4 18v27l4 22 5 12 10-10 14-7h5l1-8 4-4-3 10h18l5 2 1-4 7-6 3-17 1-10h2v13l-3 13 13-8 24-12h5l3 3v12l-9 27-1 7 13 4 9 7 6 7 4 10v13l-4 11-5 8-8 7-4 2 1 8 2 7v4l16-5h7l5 5v7l-8 16-10 10-5 2-3 25 13 2 12 3 7 1v4l7 1 9 7 4 5v6l-8 8-10 6-22 7-10 2-13 1-11 2h-24l-23-2-18-3-17-5-12-6-11-10v-12l2-1 2-15v-9l-8-14-5-14-3-18v-30l4-21 11-30 1-7-7-24-3-15v-21l2-16 5-17 12-25 10-14 8-10 8-8 3-10 9-6 7-2 19-1 4-3z" fill="#FDF9E5"/>
<path transform="translate(644,178)" d="m0 0 5 1 13 7 17 13 13 11 8 9 7 10 8 14 8 17 7 21 7 23 7 32 4 18 3 15 3 13 11 44 10 33 6 18 4 13 2 14 10 16 8 14 8 16 10 24 7 25 1 10 7-3 11-5 8-3h14l6 3 4 5 2 4v20l-6 26-10 25-13 22-12 16-12 14-5 6-4 3-4 18-4 13-7 17-9 16-2 3-1 32-6 23-6 16-4 11-3 10-11 21-10 14-8 9-23 3-9 3-4 1v-4h-20l-2-1v-2l-6-2-3-2v-3h2l-1-2-19-8-11-5-12-4-7-3h-9l-60 10-17 3-9 1-11 5-24 10-22 9-12 5-30 10-21 4h-25l-12-3-16-8-11-8-11-11-4-6v-2h-14l-8-3-7-6v-3l4-1h14l5 2v-3l-7-1-3-1v-2l-4-2-9-7-4-4v-2h18l10 5v-6l-2-5 9 1 3-5-2-4-16-12-21-21-10-13-14-21-10-18-9-19-9-24-5-15-4-16-4-25v-25l2-3 2 1v12l4 36 4 16 8 27 8 19 8 16 9 16 8 12 10 13 11 13 17 17 11 9 3 3h2l7-11 12-14 9-12 10-13 13-16 18-22h2l2-4 15-15 4-9 7-29 4-12 2-1-2 12-3 11-2 13-3 9 8-6 5-4h2l-2 4-16 15-10 9-7 8h-2l-2 4-10 11-9 11-13 16-20 26-14 19-8 12 1 3 6 2 7 7 4 7v6l-3 4-7 1-8-6-6-10-1-2v13l7 13 1 3h9l9 5 7 7 2 3 2 7 13 5 6 2h22l2-1 9-1 9-2 5-2 7-2 21-7 12-5 21-9 13-5 8-4 10-4 17-7 19-10 20-12 11-7 2 1v2l-16 12-17 10-10 5 11-1 44-8 14-2 35-9 18-7 15-7 22-12 21-14 16-12 13-11 12-12 11-14 10-15 6-11 2-6h2l1-8 3-8 2-11 1-1 2-14 1-2 1-47-5-2-2-8h-2l-1 8-5 13-9 10-4 4h-4l-2-21-2-10-17-6-11-8h-2l-1 3v11l1 7-6-5-5-10-2-8v-12l-4-2-15-15-8-7-11-10-13-10-15-10-21-12-18-8-19-7v-3l11 2 19 7 21 10 20 13 12 9 15 13 32 30 14 12 12 7 7 3 13 1 9-3 8-4 7-7 6-10 5-16 1-9v-11l-2-13-6-25-11-28-10-19-5-9-11-16-8-10-11-13-10-11-7-8-10-11-7-8-12-12-13-10-12-7-12-5 4-1 17 7 21 15 22 22 7 8 12 13 7 8 6 7-1-8-5-21-4-13v-6h-2l-9-30-20-92-6-26-7-23-6-16-8-17-8-12-9-11-12-12-16-12-16-10-5-2z" fill="#111115"/>
<path transform="translate(657)" d="m0 0h5l6 5 4 11 2 7 5 34 5 43 1 5v29l-3 11-4 7-5 5-7 5-16 5-6 4-2 6 2 2h-3v16h-3v-20l2-6 6-5 6-3 10-3 8-5 4-4 5-12 1-5v-20l-3-35-4-32-3-16-4-17-3-6-1-1h-5l-3 3h-2l-2 4-8 10-10 14-14 19-16 24-7 13-5 10-5 13-2 8v13l4 6 8 6 4 6-1 11-4 10-4 2 2-6 2-9-17-4-8-2h-35l-4 8-9 12-16 16-18 12-17 7-8 3-7 2-22 5-25 3h-34l-7 9-5 11-5 20v17l8 4 4 3v3l-6-2-8-5-9-3h-17l5 5 6 4 6 7 1 2v6l-4 3h-19l-13-1-4-1v16h-1l-2-19 1-10 6-8 6-4 10-1 7-3h10l8 2v-10l4-18 3-9 5-11 5-9-15-5-8-5-10-10v-2l22-1 14-5 13-9 22-22 7-8 13-13 16-11 13-4h18l17-5 11-2 12-21 2-3 5 1 2 1v8l-5 10-3 5 7 1 7 4 5 6 2 5v11l-1 4 6-1h16l-1-10-12-16-4-9v-15l2-10 6-18 8-16 9-17 11-19 8-8h7l5 5 5 12 3 14 3 16 5-5 15-20 12-17 7-9 8-7z" fill="#151419"/>
<path transform="translate(1630,626)" d="m0 0h12l14 4 11 7 6 5 9 11 9 10 5 5 5 4 9 3 9 1 1 4-6 9-9 7-8 4-16 4h-28l-14-3-16-6-10-6-11-9-9-10-7-12v-2l-6 5-11 15-13 21-8 17-4 18v27l4 22 5 12 10-10 14-7h5l1-8 4-4-3 10h18l5 2 1-4 7-6 3-17 1-10h2v13l-3 13 13-8 24-12h5l3 3v12l-9 27-1 7 13 4 9 7 6 7 4 10v13l-4 11-5 8-8 7-4 2 1 8 2 7v4l16-5h7l5 5v7l-8 16-10 10-5 2-3 25 13 2 12 3 7 1v4l7 1 9 7 4 5v6l-8 8-10 6-22 7-10 2-13 1-11 2h-24l-23-2-18-3-17-5-12-6-11-10v-12l2-1 2-15v-9l-8-14-5-14-3-18v-30l4-21 11-30 1-7-7-24-3-15v-21l2-16 5-17 12-25 10-14 8-10 8-8 3-10 9-6 7-2 19-1 4-3zm26 122-13 5-11 6-15 9-9 8-1 3-4-2h-17l-15 4-10 7-8 10-8 15 1 2 5-2 3 4v11l-3 8-3 2-4-1v-3l1 2h2v-4l3-1 2-6v-8l-2-2-4 1-7 14-4 16-2 13v32l3 16 6 15 6 10v24l2 3h11l18-1 19-5 31-7 12-4v2l-5 2-6 3 1 3 12 6h13l5-4 4-9 2-8 1-12v-15l-1-19-4-17-7-19-7-13-12-20-5-10v-2l6-3 5-5 5-8 5-11 3-10 3-9 1-4v-11z" fill="#1D1C20"/>
<path transform="translate(1335,926)" d="m0 0 30 8 16 7 13 9 8 9v9l-7 9-9 6-14 7-11 4-24 7-22 4-21 3-18 1-1 1h-66v-2h-13l-27-3-24-5-16-4-17-6-15-8-13-13v-9l3-6 7-6h3v3h14l7 2 4 4v2l5 2 10 6 9 3h19l12-4 15-7 16-7 19-8 26-9 1-1h6l14 8 8 6 10 7-1 4 5 3h11l3 1 7-7 8-6 6-9 3-8z" fill="#AEABA0"/>
<path transform="translate(196,445)" d="m0 0h2l6 18 10 42 12 39 3 7 6 21 9 26 11 33 5 11 6 16 5 12 5 10 6 16 6 13 6 15 8 16 9 19 9 16 8 13 8 10 6 10-5 1-16-16-7-11-10-15-4-7-8-11-19-28-11-18-9-15-7-10-9-15-14-20-13-18-10-14-14-20-11-16-12-18-10-13-11-14-9-7-8-7-6-9v-2l9 2 15 4 9-3 2-3 3-1 4-6 2-5 1-18 5 2 6 3 6-1 5-5 5-10z" fill="#3D3D45"/>
<path transform="translate(810,678)" d="m0 0h2l2 5v3l5 2v47l-2 8-1 8-1 1-2 11-5 16h-2l-2 8-8 14-10 14-12 14-13 13-14 11-18 13-21 13-21 11-27 11-40 10-26 4-32 6h-7l3-3 19-10 14-10 8-6 16-4 20-6 14-6 17-10 12-8 13-10 13-11 11-9 17-16 9-8 7-8 11-13 13-18 10-18 8-18 6-17v-5l7-8 5-13z" fill="#6C6559"/>
<path transform="translate(233,422)" d="m0 0h26l13 2 27 5 12 4-1 4-6 10-9 19-5 12-4 9-7 15-5 14-5 11-5 13-4 12-5 12-9-5-16-11-4-10-6-21-4-12-8-36-5-17-5-13-1-2h-10l-4 1 2-4 11-5 18-4z" fill="#6C6559"/>
<path transform="translate(497,125)" d="m0 0h21l6 3 6 5 2 4v8l-3 10-10 16-19 19-10 7-16 8-13 5-7 2-23 5-24 3h-36l-13-4-7-4v-2l-6-2-3-4 16-2 13-4 9-6 8-6 10-9 9-10 12-13 5-5 9-8 13-8 7-2h5v-2h10v2l-10 6-10 8-6 5-7 8-24 24-10 7-8 4-8 1v3l13-3 12-7 10-9 8-7 7-7 7-8 8-8 11-9 12-6 12-5z" fill="#8E8871"/>
<path transform="translate(789,815)" d="m0 0 2 1v19l-2 16-5 19-3 7v7l-2-1-5 12-10 20-11 16-4 5-3 1-4-3-9-3-9 1-5 3-11-2v-1l10-3 4-4 1-2-10 1-5 2h-8l-7 2v3h11l3 3-6 1v2l-6 1-10-3-16-7-11-5-20-8-4-2 7-3 20-6 19-7 13-6 18-10 10-6 16-11 21-16 3-1v-2l6-4 7-7 4-5 5-5z" fill="#565859"/>
<path transform="translate(1630,626)" d="m0 0h12l14 4 11 7 6 5 9 11 9 10 5 5 5 4 9 3 9 1 1 4-6 9-9 7-8 4-16 4h-28l-14-3-16-6-10-6-11-9-9-10-7-12-2-4h-2l-1 3h-2l-2 4-8 10-1 2h-2l-1 5-5 5-1-2 12-17 10-11 4-10 7-6 12-3h14l15 6 13 13 11 14 11 10 11 5 12 1v-3h-7l-11-3-6-4-12-12-8-10-7-8-3-2v-2l-5-2-13-5 4-4z" fill="#8E8871"/>
<path transform="translate(1669,942)" d="m0 0 13 2 12 3 7 1v4l7 1 9 7 4 5v6l-8 8-10 6-22 7-10 2-13 1-11 2h-24l-23-2-18-3-17-5-12-6-11-10 1-7 17-2 18-1 24-7 18-3h6l14 8 1 3 3-1 13-1 6-5 4-9z" fill="#ADAA9F"/>
<path transform="translate(1323,805)" d="m0 0h1l2 12 2 21v14l-3 16-7 13-9 13-17 17-15 11-36 12-11 5-18 7-15 7-21 9-8 3-4 1h-7v-2l-8-1-4-4 1-3 18-5 16-7 21-11 45-27 16-11 4-2v2l4-2v-3l6-5 1 4 11-7 5-5 3-7-5 2h-3l10-12 8-13 8-16 8-22z" fill="#5F7188"/>
<path transform="translate(860,600)" d="m0 0h12l7 6 2 7v17l-7 26-4 12-7 15-8 13-5 8h-2l-2 5-13 17-10 10h-1v-70l4-1 2-7 1-11 3-15 1-20 12-7z" fill="#8C8671"/>
<path transform="translate(586,15)" d="m0 0 5 1 5 8 3 9 4 21v15l-6 8-8 17-5 10-4 13-1 5v14l6 9 3 3-2 5-16-1-13-1-1-10-3-8-6-7-3-6-1-5v-13l2-10 4-13 5-12 12-23 5-7 2-5h2l1-5 6-8z" fill="#6C6559"/>
<path transform="translate(628,846)" d="m0 0 1 2-7 12-14 17-11 12-8 7-20 12-22 12-11 5-11 4-13 6-20 8-14 6-16 6-17 6-7 2-5 2-9 2-9 1-2 1h-22l-9-3-10-4-1-2 19-1 19-3 15-4 16-6 35-16 38-18 35-15 18-8 15-9 19-14 16-12 7-5z" fill="#6C6559"/>
<path transform="translate(497,125)" d="m0 0h17v3l-14 8-12 9-10 9-7 7-9 11-11 12-15 11-21 10-17 4h-31l-15-3-2-2 15-4 9-4 6-4 8-6 10-9 9-10 12-13 5-5 9-8 13-8 7-2h5v-2h10v2l-10 6-10 8-6 5-7 8-24 24-10 7-8 4-8 1v3l13-3 12-7 10-9 8-7 7-7 7-8 8-8 11-9 12-6 12-5z" fill="#BCD8A2"/>
<path transform="translate(1042,698)" d="m0 0h5l5 8 1 3v15 3l1-3v-12l-3-9-3-5h15l12 5 9 6 5 5 4 5v15h-4l1 5-6-1v-2h-3l3 6 1 3h-5l4 6 1 4-6-1 3 4 6 3-1 3-12 4h-13l-16-5-2-1v-2l-4-1-8-7-4-6-4-9-1-5v-14l3-8 6-7z" fill="#A08F73"/>
<path transform="translate(172,569)" d="m0 0h2v2h2l1 4h2l9 13v3h2v3h2l5 8v2h2l3 5 2 4h2v3h2l11 16 11 15 3 4v3h2l5 7 1-1v-10l1-1-1-7-12-19-8-17-8-16-7-16 1-4 8 16 12 26 10 18 8 11 3 3 1-7v-13l-2-7-3-9-10-31-1-8 2 3 9 26 11 33 5 11 6 16 5 12 5 10 6 16 6 13 6 15 8 16 9 19 9 16 8 13 8 10 6 10-5 1-16-16-7-11-10-15-4-7-8-11-19-28-11-18-9-15-7-10-9-15-14-20-13-18-10-14-14-20-11-16z" fill="#272A3A"/>
<path transform="translate(1650,755)" d="m0 0h4l1 5-1 12-4 13-6 8-5 8-3 1v2l-5 4-1 2v7l2 4v4l-8 2-13-1-5-8-3-3-7-2-6 1h-7l-21-11-1-4 3-6 7-6 8-3 10-2h18v-2l7-3 16-12 5-5z" fill="#C3BBAF"/>
<path transform="translate(1097,774)" d="m0 0 5 5 1 4-1 7 7 3 5 4 4 6 4 5 3 2h4l1-10 9 2 1 1 1 9v27l-6 21-8 22-3 10h-3l-7-10-6-12-4-12-5-25-2-19z" fill="#FCF8E3"/>
<path transform="translate(397,338)" d="m0 0h5l4 16 5 12 6 12v4l-18 8-19 7-11 3-8-19-5-13-5-21v-3l15-2 3-1 20-2z" fill="#F6F5F5"/>
<path transform="translate(1693,948)" d="m0 0h8v4l7 1 9 7 4 5v6l-8 8-10 6-22 7-10 2-13 1-11 2h-24l-7-1 5-5 9-5 11-6v-3l-5 2-10 5-3-1 12-7 24-11 12-6 13-5 7-4h2z" fill="#ADAAA0"/>
<path transform="translate(1600,632)" d="m0 0h22l12 5 10 9 11 13 7 8 7 7 6 3 16 3v3h-12l-12-6-12-11-13-16-9-8v-2l-5-1-10-4h-14l-14 4-5 6-4 9-10 11-11 16 2 1 2-4 2-5h2l2-5 9-11 5-4 2 1v2l-6 5-11 15-13 21-8 17-4 18v27l4 22 5 12 10-10 14-7h5l1-8 4-4-3 10h18l5 2 1-4 7-6 3-17 1-10h2v13l-3 13 13-8 24-12h5l3 3v12h-1l-1-5h-1l-1-6-9 2-16 8-14 8-9 7-2 2v4l-6-2h-17l-15 4-10 7-9 12-6 13 5-2 4 5v11l-3 8-4 3-4-1-2-2v-9h1l2 9h2l-1-4 4-1v-5l1-1v-8l-4-1-7 14-4 16-2 13v32l3 16 6 15 6 10v24l1 2h11l18-1 12-3 3 1-3 3-13 4-28 2h-7l-1-5 2-1 2-15v-9l-8-14-5-14-3-18v-30l4-21 11-30 1-7-7-24-3-15v-21l2-16 5-17 12-25 10-14 8-10 8-8 3-10 9-6z" fill="#2A292B"/>
<path transform="translate(657)" d="m0 0h5l6 5 4 11 2 7 5 34 5 43 1 5v29l-3 11-4 7-5 5-7 5-16 5-6 4-2 6 2 2h-3v16h-3v-20l2-6 6-5 6-3 10-3 8-5 4-4 5-12 1-5v-20l-3-35-4-32-3-16-4-17-3-6-1-1h-5l-3 3h-2l-2 4-8 10-10 14-14 19-16 24-7 13-5 10-5 13-2 8v13l4 6 8 6 4 6-1 11-4 10-4 2 2-6 2-9-17-4-8-2-34-1 3-3 3-1h29l16 2 1-6-5-4-4-7v-14l4-15 5-12 8-15 4-7 3-4v-15l-4-21-3-9-4-6v-2h-5l-8 9-3 7h-2l-2 6-10 17-7 15-5 13-4 12-1 7v13l2 7 10 15-2 1-10-13-4-9v-15l2-10 6-18 8-16 9-17 11-19 8-8h7l5 5 5 12 3 14 3 16 5-5 15-20 12-17 7-9 8-7z" fill="#16151A"/>
<path transform="translate(1043,695)" d="m0 0h14l10 2 16 8 8 8 2 1 2-9 2-1v33l9-4 12-2h36l15 4 1 2-12-1-3-1h-28l-18 2-9 3-5 6-1 2v10l4 10 8 11 11 9 14 8 8 3 7 1-1 3h-3l1 3 1 35-22 66-5 20-2 1-2 3 1-7 4-17 3-8-1-4-5-5-6-9-6-16-4-15-3-18-1-1-1-16v-47l-1-4-10 4-9 2h-14l-12-3-11-6-7-7-6-10-4-11v-16l4-9 5-6 10-6zm-1 3-10 5-6 7-3 8v14l3 9 4 8 8 9 3 2h3v2l10 4 8 2h13l12-4 1-3-8-5-1-2 6 1-1-4-4-6h5l-2-4-2-5h3v2l6 1-1-5h4v-15l-6-8-10-7-9-4-5-2h-15l5 9 1 5v12l-2 4 1-4v-15l-4-8-2-3zm55 76v40l3 27 3 11 3 12 5 12 6 11 5 6 2-1 6-18 7-20 4-15v-27l-1-9-7-3h-3l-1 10-5-1-5-5-4-5-5-5-5-3-3-1 1-9-5-7z" fill="#16161B"/>
<path transform="translate(338,345)" d="m0 0h10l6 21 7 19 6 13-1 4-19 6-6 2-12 1-12-29-6-24v-10z" fill="#F6F5F4"/>
<path transform="translate(1324,878)" d="m0 0h3l4 27v22l-2 8-6 12-7 6-4 2h-12l-12-6-18-13-5-3v-2l12-4 9-6 11-9 13-13 13-18z" fill="#5F7086"/>
<path transform="translate(130,346)" d="m0 0h7l8 5 7 8 6 12 2 6v10l-3 2-5-1-8-11-8-7-5-2h-5l-3 4-1 5 5-5 4-1-1 4v10l4 18 3 10 3 8 4 10 4 9 8 17 3 5 3 15v10l-1 5-3-1-2-4v-6l-5-7 1-8-1-4-2-4-11-9-9-19-8-20-4-13-3-16v-15l3-10 6-7z" fill="#A08F73"/>
<path transform="translate(534,155)" d="m0 0h35l6 1v1h-35l-4 11-7 12-8 10-6 7-14 11-16 10-18 8-21 6-16 3-9 1h-37l-16-2-1-2 6-8 5-1h30l25-3 22-5 7-2 21-8 12-7 12-9 15-15 7-10 4-8z" fill="#6B6459"/>
<path transform="translate(240,676)" d="m0 0 2 1v12l4 36 4 16 8 27 8 19 8 16 9 16 8 12 10 13 11 13 17 17 11 9 3 3h2l7-11 12-14 9-12 10-13 13-16 18-22h2l2-4 15-15 4-9 7-29 4-12 2-1-2 12-3 11-2 13-3 9 8-6 5-4h2l-2 4-16 15-10 9-7 8h-2l-2 4-10 11-9 11-13 16-20 26-14 19-8 12 1 3 6 2 7 7 4 7v6l-3 4-7 1-8-6-6-10-1-2-1 6h-1v-8h2l-5-10v-2l9 1 3-5-2-4-16-12-21-21-10-13-14-21-10-18-9-19-9-24-5-15-4-16-4-25v-25z" fill="#1F1E21"/>
<path transform="translate(1353,783)" d="m0 0h8l4 5 1 2v15l-3 15-4 11-12 16-13 10h-2v-23l-4-30-1-4v-7l21-9z" fill="#7092CD"/>
<path transform="translate(1249,539)" d="m0 0h5l3 4 1 4v9l-2 9-12 11-8 7-8 9-7 11-4 10-15-1-1-7v-12l8-15 10-13 18-18 10-7z" fill="#7092CC"/>
<path transform="translate(827,629)" d="m0 0h1v8l-5 16-7 11-7 7-8 4-9 3-13-1-16-8-11-9-24-22 3-2 4 2 15 7 17 5 5 1h22l16-5 10-7 6-7z" fill="#6B6459"/>
<path transform="translate(444,333)" d="m0 0h9l6 13 4 8v4l-12 7-11 6-16 8-4 1-7-14-7-19-2-9 1-1 16-2 17-1z" fill="#F6F5F4"/>
<path transform="translate(500,739)" d="m0 0v3l-8 7-14 11-11 10-8 7-13 12-8 7-9 9-8 7-15 14-11 12-7 8-9 11-14 17-11 15-5 8-1 4 3 1-1 3-7-4v-2l-2-1 11-16 12-16 10-13 11-14 8-10 9-11 13-15 3-4h2l2-4 12-12 8-7 12-11h2l2-4 27-14z" fill="#A29174"/>
<path transform="translate(527,131)" d="m0 0 4 4 1 2v8l-3 10-10 16-19 19-10 7-16 8-13 5-7 2-23 5-24 3h-36l-13-4-7-4v-2l-6-2-1-2 6 2 17 6 7 1h21l20-3 31-8 20-7 8-4h3v-2h3v-2l11-7 13-10 10-13 5-9 3-5 4-12z" fill="#555757"/>
<path transform="translate(294,477)" d="m0 0h7l7 4 10 7 7 2-1 2h-6l-6-4-6-5h-7l-3 3-5 11-12 28-15 39-5 18-2 16v10l4 13 12 30 13 31 16 37 11 24 9 19 10 19 5 9v2l-3-1-13-21-14-27-8-17-10-23-5-12-5-10-6-16-5-11-5-13-6-15-6-17v-9l4-22 6-21 10-27 17-41z" fill="#F8F7EF"/>
<path transform="translate(1299,535)" d="m0 0h8l4 4 1 3v21l-6 31-2-1-2 7h-1l1-13 3-11 2-9 1-9v-16l-2-3h-7l-14 8-16 12-17 14-13 12-8 8-9 14-1 8 4 3v3l-12-3-2-1h-14l-15 2-18 5-10 6-9 8-10 14-7 14-4 15h-13l-3 6-6 2-3 11-1 9-3-4 1-10 2-5v-7l4-6h17l3 1v-6l5-13 9-15 11-12 9-8 8-4 11-4 9-2 16-1-1-7v-12l4-10 11-16 9-10 17-17 8-5h6l5 5 1 3v17l6-4 14-11 10-7zm-50 4-9 6-10 9-13 13-9 13-7 13v12l1 7 15 1 5-12 8-11 9-10 15-13 2-2 2-9v-9l-3-7-1-1z" fill="#15141B"/>
<path transform="translate(876,642)" d="m0 0 1 4-7 22-7 15-8 13-5 8h-2l-2 5-13 17-10 10h-1l1-44 11-6 13-9 7-6 7-8 13-17z" fill="#6B6559"/>
<path transform="translate(1630,626)" d="m0 0h12l14 4 11 7 6 5 9 11 9 10 5 5 5 4 9 3 9 1 1 4-6 9-9 7-8 4-16 4h-28l-14-3-16-6-10-6-11-9-9-10-7-12 1-2 6 8 12 9 11 7 13 6 16 5 12 2h26l19-5 11-4 3-6-10-1-8-4-12-10-5-5-7-10v-2l-4-2-10-8-9-5-10-2h-11l-8 1 1-2z" fill="#585A59"/>
<path transform="translate(657,4)" d="m0 0h5l4 5 1 7-12 7-15 14-13 17-9 15-12 21-9 16-4 11-1 7v9l3 10v3l-5-1-5-5-3-4v-13l5-17 7-14 8-15 13-19 13-18 12-16 8-11 4-5z" fill="#A29175"/>
<path transform="translate(1657,889)" d="m0 0 4 3 4 21-1 21-5 16-3 4-10 1-2-1v-2h-2l-1-10-2-1-3-2-6 1-10 4-12 3h-7l3-2 16-8 11-7 8-7 10-14 6-14z" fill="#C4BCB0"/>
<path transform="translate(428,260)" d="m0 0 7 1 8 5 5 4 7 10 2 5-1 8-6 9-7 6-10 5h-9l-6-4v-4l6-4 5-12-2 1h-6l-1-1v-5l1-1h6l-1-7-6-2 2-5 4-6z" fill="#F4F3F2"/>
<path transform="translate(644,178)" d="m0 0 5 1 13 7 17 13 13 11 8 9 7 10 8 14 8 17 7 21 7 23 7 32 4 18 3 15 3 13 11 44 10 33 6 18 4 13 1 10h-2l-1 2-5-8-5-25-6-20v-6h-2l-9-30-20-92-6-26-7-23-6-16-8-17-8-12-9-11-12-12-16-12-16-10-5-2z" fill="#19181D"/>
<path transform="translate(481,328)" d="m0 0h14v8l-5 5-16 12-12 8-10 6-17 10-21 9-9 4-20 7-8 3-2-1 10-5 17-6 13-6h2l-4-10-6-13-5-16v-5h-8l1-2 12-2 39-4zm-37 5-6 1-17 1-16 2-1 4 7 20 8 18 3 1 16-8 9-5 16-9-1-5-7-16-2-4z" fill="#1F1E24"/>
<path transform="translate(375,475)" d="m0 0h8l8 3 8 9 6 15v17l-7-1-9-7-5-6-8-6-3-1h-7l-5 1h-9l-3-3v-6l12-9 10-5z" fill="#8A846F"/>
<path transform="translate(779,882)" d="m0 0 1 4-5 15-11 21-10 14-8 9-23 3-9 3-4 1v-4h-20l-2-1v-2l-6-2-3-2v-3l4 1 7 3 6-1 1-1-5-2 3-1h6v-2l5-2-4-1h-7l-3-3 2-3 8-1 9-1 7-2h7l-4 6-8 4 6 2 5-3 9-1 11 4 3 2 5-5 12-18 11-23z" fill="#131317"/>
<path transform="translate(313,510)" d="m0 0h14l7 4 6 7 5 13v10l-3 5-5-1-10-8-8-6h-27l-2-3 1-5 5-7 11-7z" fill="#8B8570"/>
<path transform="translate(1600,632)" d="m0 0h22l12 5 10 9 11 13 7 8 7 7 6 3 16 3v3h-12l-12-6-12-11-13-16-9-8v-2l-5-1-10-4h-14l-14 4-5 6-4 9-10 11-11 16 2 1 2-4 2-5h2l2-5 9-11 5-4 2 1v2l-6 5-11 15-13 21-8 17-4 18-2 1v30l4 18 4 12 1 5-2 1-5-13-3-10-2-15-1 5h-1l-1-5v-21l2-16 5-17 12-25 10-14 8-10 8-8 3-10 9-6z" fill="#454649"/>
<path transform="translate(1651,792)" d="m0 0 2 2 13 4 3 2v3l3 1 2 4v17l-3 6-9 5-10 1v2h-2l-13-21-2-3 1-4 9-7z" fill="#A19074"/>
<path transform="translate(458,129)" d="m0 0h10v2l-10 6-10 8-6 5-7 8-24 24-10 7-8 4-8 1-1 3v-3l-5 1 2-4 6-4 12-11 7-8 13-14 5-5 9-8 13-8 7-2h5z" fill="#B9D39F"/>
<path transform="translate(399,537)" d="m0 0h11l7 3 5 4 5 9 2 9v12l-2 3-6-1-12-13-4-2-20-1-5-3-1-4 6-8 7-5z" fill="#8C8670"/>
<path transform="translate(341,425)" d="m0 0h14l19 2 18 6 16 8v2l4 2 10 9 8 8 11 15 10 18 7 16 7 23 4 35v55l-2 26-4 28-5 25-4 14-3 10h-2l1-9 4-16 4-17 5-32 2-21v-60l-3-31-3-14-8-24-12-23-9-12-9-11-10-9-14-9-9-4-14-4-9-1-46-1 2-3z" fill="#1B1B20"/>
<path transform="translate(756,413)" d="m0 0 2 4 7 22v4h2l4 16 5 18 2 10v5l-5-4-7-8-9-10-7-8-15-16-12-12 7 1 21 13 7 5-2-17z" fill="#6B6459"/>
<path transform="translate(679,101)" d="m0 0h1l1 11v20l-3 10-4 8-8 7-10 4-8 3-6 4-2 2-5-1-10-8v-2l10-2 12-5 11-8 9-13 6-13z" fill="#6C6559"/>
<path transform="translate(315,282)" d="m0 0h13l11 7 7 8 1 2v6l-4 3h-19l-13-1-4-1v16h-1l-2-19 1-10 6-8z" fill="#0D0D11"/>
<path transform="translate(1799,956)" d="m0 0h16l7 1 4 1 1 4-3 1v8l-4 10-6 5-11 2-7-1-5-4-1-3v-9l5-7 3-7z" fill="#19191E"/>
<path transform="translate(1630,628)" d="m0 0h11l10 2 13 8 8 7 5 5 6 9 8 7 4 4v2l-7-1-15-8-12-9-11-7-7-1-6-5v-2l-5-2-13-5 3-3z" fill="#BBD6A2"/>
<path transform="translate(307,306)" d="m0 0 4 1h-3l1 25v14l2-1 79-9h5l2 3-14 2-14 1-3 1-15 1 6 24 10 25 2 4v3l5-1v2l-16 6-15 5-14 2-3 3-3 1 2-4-1-7-7-15-6-20-4-22-2-15v-19h1zm31 39-27 3v10l6 24 12 29 12-1 13-4 12-4 1-4-8-18-7-20-4-15z" fill="#212024"/>
<path transform="translate(1669,801)" d="m0 0 5 3 7 8 4 10v13l-2 7h-2l-6 10-8 7-3 2h-3l-10-21 1-3 12-3 5-3h2l2-6v-17l-2-4-2-1z" fill="#8C8671"/>
<path transform="translate(427,257)" d="m0 0 8 1 10 5 9 9 7 13 1 9-13 14h-2v2l-12 6h-13l-6-4-3-6-1-4v-14l3-13 5-10 1-4v-2zm1 3-7 10-1 4 6 2 1 7h-6l-1 1v5l1 1h6l2-1-5 12-7 5 2 4 5 3h9l10-5 8-7 5-8 1-8-5-10-6-7-9-6-5-2z" fill="#141318"/>
<path transform="translate(1614,736)" d="m0 0h5l1 3-3 23-2 5-7 6-1 3-5-1-18-1 1-6 3-7 12-13 11-10z" fill="#ADAA9F"/>
<path transform="translate(158,437)" d="m0 0h22v3h-2l-2 4-8 9-3 6 1 2 6-1 2 3v-5l14-7h3l-1 10-4 10-4 5-3 2h-5l-10-9-11-23-1-4 2-2z" fill="#282B3A"/>
<path transform="translate(1095,770)" d="m0 0 2 4 1 40 3 27 3 11 3 12 5 12 6 11 5 5 6-18 7-20 4-15v-27l-1-10 3 1 1 3 1 35-22 66-5 20-2 1-2 3 1-7 4-17 3-8-1-4-5-5-6-9-6-16-4-15-3-18-1-1-1-16v-32z" fill="#242326"/>
<path transform="translate(789,815)" d="m0 0 2 1v19l-2 16-5 19-3 7v7l-2-1-5 12-10 20-11 16-5 5-2-5v-3h-2v-2l-3-1 2-5 4-4 4-1 2 1 2-4 5-5 7-10 3-7 4-12 5-12 4-10 3-12 2-4-3-8v-7l-4 3 2-4zm-10 65m1-52m-2 1h2v2l-5 2z" fill="#3C3C45"/>
<path transform="translate(1614,874)" d="m0 0h6v3l3 1 7 14 5 4v2h3l2 8v6l-3 5-2-1v-2l-5 5-11 4h-5l5-6h2l-2-3-4-2-2-4 1-8 4-9-2-4-4-12z" fill="#FFFFF7"/>
<path transform="translate(586,15)" d="m0 0 5 1 4 6v4l-11 7-7 6-10 15-9 20-6 19-3 14-1 17-4-4-1-5v-13l2-10 4-13 5-12 12-23 5-7 2-5h2l1-5 6-8z" fill="#A08F73"/>
<path transform="translate(1589,816)" d="m0 0h10l7 6 1 2v8l-6 10-5 4-2 1h-7l-7-4-4-8 1-9 7-8z" fill="#F1F0EF"/>
<path transform="translate(1901,954)" d="m0 0h16l5 3 4 6 2 6v11l-5 5h-10l-6-3-6-9z" fill="#1D1D21"/>
<path transform="translate(1542,730)" d="m0 0h1l1 29 4 22 5 12 10-10 14-7h5l1-8 4-4-3 10h18l5 2 1-4 7-6 3-17 1-10h2v13l-3 13 13-8 24-12h5l3 3v12h-1l-1-5h-1l-1-6-9 2-16 8-14 8-9 7-2 2v4l-6-2h-17l-15 4-10 7-9 12-4 9-3-1 1-9-7-24-1-6v-10l2 1 3 19 3 8 4 10-1-5-5-16-3-14v-30z" fill="#29282B"/>
<path transform="translate(128,343)" d="m0 0h10l9 5 7 8 8 16 2 7v8l-4 5-7 1-5-5-9-12-2-2-4 1-1 2v9l5 20 9 24 4 10-4-1-3-8-8-20-5-20-1-6v-10l2-4-5 3-2 3h-2l1-7 3-3 8 1 8 6 7 8 4 6 6-1v-10l-6-15-7-9-5-4-4-2h-7l-8 4-4 5-3 8-3 1 1-7 5-9 7-5z" fill="#17161A"/>
<path transform="translate(113,364)" d="m0 0h2v17l4 19 7 21 7 15 7 14 10 8 2 4 1 9-5 1-8 1-6-3h-1l-1-9-1-2v-7l3-3-2-6-7-15-7-18-7-26v-19z" fill="#1E1D21"/>
<path transform="translate(311,852)" d="m0 0 5 1 20 8v2l20 4 1 3-10 14-2 3-4-2-10-9-8-7-13-13z" fill="#F5F4F2"/>
<path transform="translate(233,422)" d="m0 0h26l13 2 27 5 12 4-1 4-5 1-24-6-24-4h-32l-20 4-18 5-4 1 2-4 11-5 18-4z" fill="#9B8C71"/>
<path transform="translate(1600,632)" d="m0 0h22l12 5 10 9 11 13 7 8 7 7 6 3 16 3v3h-12l-12-6-12-11-13-16-9-8v-2l-5-1-10-4h-14l-14 4-5 6-4 9-10 11-11 16-10 17-6 16-2 1 1-8 12-25 10-14 8-10 8-8 3-10 9-6z" fill="#201F23"/>
<path transform="translate(1247,556)" d="m0 0 4 1 3 10-4 4-7 1v2h-3v2l-5 1-1 3h-2l-10 7-6 7h-2l-2 4h-2l2-9 5-12 9-13 2-1 1 2 8-2z" fill="#607288"/>
<path transform="translate(1012,636)" d="m0 0h8l1 2 1 22 1 1-1 7-3 3-5-1-2-2v-6l4-4h3v-11l-19 5-2 2v9l1 1-1 7-3 3h-5l-3-2v-7l5-4h3v-19l8-3z" fill="#3C3C3E"/>
<path transform="translate(400,441)" d="m0 0 5 2 9 7 11 10 13 17 10 18 6 13 6 19 3 14 3 31v24h-1l-3-22-1-24-3-15-7-21-6-15-7-13-11-16-7-8v-2l-4-2-5-5-9-7z" fill="#F7F6EF"/>
<path transform="translate(584,13)" d="m0 0h7l5 5 5 12 3 14 2 10v5h-2v8h-1l-2-18-3-16-3-9-4-6v-2h-5l-8 9-3 7h-2l-2 6-10 17-7 15-5 13-4 12-1 7v13l2 7 10 15-2 1-10-13-4-9v-15l2-10 6-18 8-16 9-17 11-19z" fill="#1B1A1F"/>
<path transform="translate(1656,748)" d="m0 0 4 1v11l-3 12-3 8-5 12-5 9-5 5-4 3-3 1 2 6 3 6v2l-5 1-3-8v-7l5-6h2v-2l5-5 6-10 2-2 2-5 2-11 1-14-16 5h-3l-1 3-10 8-9 6-4 2-1 2v-2h-2l1-4 8-7 17-10 16-8z" fill="#F1EFEE"/>
<path transform="translate(1659,873)" d="m0 0 4 1 4 17 1 19v15l-1 12-4 14-5 6-2 1h-13l-13-7v-2l9-5h3v8h2v2h12l2-4 5-16 1-21-4-21-2-2-2 1 2-16z" fill="#EFEDEB"/>
<path transform="translate(1681,880)" d="m0 0h9l2 2-1 9-6 12-8 9-4 3h-2l-1-17-1-14z" fill="#F8F4E1"/>
<path transform="translate(241,677)" d="m0 0 5 5 9 16 8 13 14 22 22 33 13 21 6 9-4-1-12-17-7-11-10-15-11-17-22-33-3-3-3 1-3 4-2-15z" fill="#F7F6EE"/>
<path transform="translate(474,331)" d="m0 0h18l-1 5-7 7-17 12h-2l-9-20-1-3z" fill="#F1F0EF"/>
<path transform="translate(413,372)" d="m0 0 3 4 1 6-18 8-19 7h-7l-4-2-2-5 12-5 30-11h4z" fill="#C5BDB2"/>
<path transform="translate(1184,614)" d="m0 0h9l4 3-15 2-18 5-10 6-9 8-10 14-7 14-4 15h-13l-3 6-6 2-3 11-1 9-3-4 1-10 2-5v-7l4-6h17l3 1v-6l5-13 9-15 11-12 9-8 8-4 11-4z" fill="#222126"/>
<path transform="translate(461,661)" d="m0 0h1l-1 11-3 19-6 25-4 12-10 42-4 9-14 14-1-2 6-8 6-7 4-9 6-29 10-40 6-25 2-10z" fill="#F5F4EC"/>
<path transform="translate(1157,663)" d="m0 0 5 2 4 5 2 3v16l-5 7-6 4-6 1-3-4v-12l6-2 3-4v-9l-3-2 2-4z" fill="#F0EFED"/>
<path transform="translate(1615,636)" d="m0 0h8l10 4 13 13 11 14 6 6v2l-6-1-9-7-15-13-13-10-7-3-1-4z" fill="#BBD6A2"/>
<path transform="translate(1323,811)" d="m0 0 2 1 2 16 1 10v14l-3 16-7 13-9 13-17 17-15 11-2 1h-6l5-4 5-3 8-6h2v-2l11-8 5-8h2l1-4 3-6 6-8 5-10 2-11v-17l-1-7h-2v-3h-2l1-7z" fill="#6D8DC3"/>
<path transform="translate(319,429)" d="m0 0h46l1 2-2 1-37 2-6 3-6 10-1 4 3 7 7 14 2 8v6l-2-2-6-15-7-11-6-3 1-4 10-18z" fill="#FAFAF2"/>
<path transform="translate(1630,626)" d="m0 0h12l14 4 11 7 6 5 9 11 9 10 5 5 5 4 9 3 9 1 1 4-6 9-9 7-8 4-16 4h-14v-2h12v-2l14-3 10-4 7-5 1-3 4-4 1-3-10-1-8-4-12-10-5-5-7-10v-2l-4-2-10-8-9-5-10-2h-11l-8 1 1-2z" fill="#2A292C"/>
<path transform="translate(1156,660)" d="m0 0 6 1 7 8 3 7v13l-7 8-8 6-6 1-4-4-2-3v-15l3-10 5-9zm1 3-3 3 1 3 2 1v9l-4 5-5 1v12l3 4 6-1 8-6 3-5v-16l-6-8z" fill="#1D1B1E"/>
<path transform="translate(164,495)" d="m0 0 1 3-7 11-4 5-10 3h-4l1 4 7 10 2 6-5-3-5-6-11-8-6-7-4-6v-2l9 2 15 4 9-3 2-3 3-1z" fill="#555858"/>
<path transform="translate(358,392)" d="m0 0h4l2 2 3 4-1 4-19 6-6 2-12 1-2-7 3-3z" fill="#C6BFB5"/>
<path transform="translate(1633,938)" d="m0 0 6 1v3l-6 3-22 5-32 8-18 1h-11v-4l19-1 32-8h9l18-6z" fill="#F0EEEC"/>
<path transform="translate(248,736)" d="m0 0h2l3 9 8 21 10 24 10 19 11 17 8 11 6 7v4l-4-2-8-9-10-15-11-19-8-16-9-22-8-28z" fill="#F9F8F0"/>
<path transform="translate(817,667)" d="m0 0h1v17l-3-2-2 1-1-5h-2l-1 8-5 13-5 5-1-1v-11l1-11h-2l-1 15h-2l-4-6-1-3-4-4 4-2 9-2 11-4 5-5z" fill="#282A3A"/>
<path transform="translate(718,922)" d="m0 0h7l-4 6-8 4 5 3-6 9-1 1h-16l-1-3 3-2-5-2 3-1h6v-2l5-2-4-1h-7l-3-3 2-3 8-1 9-1z" fill="#3E3E46"/>
<path transform="translate(303,457)" d="m0 0 5 1 5 5 5 8 1 7h2l1 9-4-1-13-9-9-3 1-6z" fill="#89836F"/>
<path transform="translate(232,552)" d="m0 0 7 4 14 10-1 10-4 16-2 3-12-34z" fill="#F8F7F7"/>
<path transform="translate(375,475)" d="m0 0h8l8 3 8 9 6 15v17l-7-1-9-7-5-6-8-6-3-1h-7l-5 1h-9l-3-3v-6l12-9 10-5zm1 3-11 3-10 7-4 3 1 5h20l8 3 7 6 7 8 7 4h2v-9l-3-13-5-9-5-5-4-3z" fill="#2C2B2B"/>
<path transform="translate(1668,931)" d="m0 0h1v12l-4 10-5 6-3 2-13 1h-4v-3l-6-2-8-5-11 1-17 3-5 1 1-4 39-9 5-2h3v2l-8 5h-3l3 3 10 5h13l5-5 3-7 3-13z" fill="#1D1C20"/>
<path transform="translate(330,896)" d="m0 0 5 1 1 2 10 4 8 8 4 7-1 6-2 2-6-1-5-5-7-10h-2l-1 6h-1v-8h2l-5-10z" fill="#282B39"/>
<path transform="translate(313,510)" d="m0 0h14l7 4 6 7 5 13v10l-3 5-5-1-10-8-8-6h-27l-2-3 1-5 5-7 11-7zm-1 2-10 5-6 5-3 4v5h25l8 4 7 7 5 4 4-1v-13l-4-10-5-6-8-4z" fill="#1B1A1E"/>
<path transform="translate(1299,535)" d="m0 0h8l4 4 1 3v21l-6 31-2-1-2 7h-1l1-13 3-11 2-9 1-9v-16l-2-3h-7l-14 8-16 12-6 4 2-5 16-13 11-7z" fill="#1A1A20"/>
<path transform="translate(399,537)" d="m0 0h11l7 3 5 4 5 9 2 9v12l-2 3-6-1-12-13-4-2-20-1-5-3-1-4 6-8 7-5zm2 2-9 4-8 6-1 7 1 1 21 1 9 6 9 10h3v-18l-6-10-6-5-6-2z" fill="#25252A"/>
<path transform="translate(233,419)" d="m0 0h27l15 2 22 5-2 3-23-4-13-2h-26l-30 5-10 3-7 3v-3l13-6 25-5z" fill="#1E1D23"/>
<path transform="translate(1586,777)" d="m0 0h17l4 2v2l2 1-2 1h-18l-16 4-6 4-4 5-1 7-5-1-3-1-4 4 2-5 8-11 9-7 13-4z" fill="#F2F1EF"/>
<path transform="translate(1619,739)" d="m0 0h2v13l-3 13 13-8 24-12h5l3 3v12h-1l-1-5h-1l-1-6-9 2-16 8-14 8-9 7-2 2v4l-6-2h-17l-7 1 3-4 1-7 4-4-3 10h18l5 2 1-4 7-6 3-17z" fill="#222227"/>
<path transform="translate(1589,816)" d="m0 0h10l7 6 1 2v8l-6 10-5 4-2 1h-7l-7-4-4-8 1-9 7-8zm-1 3-7 5-2 4v8l4 6 3 2h8l-1-10 2 2h3l-1-6 5 3 2-2v-6l-4-5-2-1z" fill="#2B2A2C"/>
<path transform="translate(1798,964)" d="m0 0 8 1 5 6v9l-5 4h-9l-5-4v-8z" fill="#9F8E72"/>
<path transform="translate(403,337)" d="m0 0 2 1 2 9 8 21 5 11 6-2 16-8 6-4 2 1-1 3-14 8-21 9-9 4-20 7-8 3-2-1 10-5 17-6 13-6h2l-4-10-6-13-5-16v-5z" fill="#1F1F23"/>
<path transform="translate(1675,816)" d="m0 0h1v11l-1 7 2 2-1 9-2 4-3 3h-6l-5-4-1-3 1-4-2-1 1-4 10-5h2l2-6z" fill="#6D665A"/>
<path transform="translate(131,452)" d="m0 0h7l11 7-1 4-3 2 6-1 2 2v5l-5 1-8 1-6-3h-1l-1-9-1-2z" fill="#292C3A"/>
<path transform="translate(554,67)" d="m0 0 4 2-1 8-6 20-2 10-1 17-4-4-1-5v-13l2-10 4-13z" fill="#A8A395"/>
<path transform="translate(1097,774)" d="m0 0 5 5 1 4-1 7 6 2v5l-4 2-1 2-1 26 1 5-1 6-2-1-2-14-1-9z" fill="#ECEBE3"/>
<path transform="translate(729,930)" d="m0 0h4v2l5 1 6 4 1 4-3 2-22 3-7 1 4-8 8-6 4-1z" fill="#272A3A"/>
<path transform="translate(468,610)" d="m0 0h1v14l-2 26-4 28-5 25-4 14-3 10h-2l1-9 4-16 4-17 5-32 3-29 1-1z" fill="#1C1C20"/>
<path transform="translate(1584,653)" d="m0 0 2 1v2l-6 5-11 15-13 21-8 17-3 14-3-4 3-16 5-12 8-13 4-1 2-4 2-5h2l2-5 9-11z" fill="#6E6A60"/>
<path transform="translate(452,128)" d="m0 0 3 1 3 2-12 3-10 6-11 9-5 5-16 17-12 13-9 7v-3l11-12 13-13 7-8 13-13 16-11z" fill="#29282A"/>
<path transform="translate(1024,711)" d="m0 0 1 3-1 4v14l3 9 4 8 7 8 6 3v2l10 3 8 2h13l11-3v3l-5 2-7 1h-14l-12-3-11-6-7-7-6-10-4-11v-16z" fill="#1C1B20"/>
<path transform="translate(971,589)" d="m0 0 6 1 4 4v11l-3 1v-10l-5-4v35l-6 5h-7l-1-1v-7l6-6h6z" fill="#121115"/>
<path transform="translate(457,352)" d="m0 0 2 1-1 4-5 4h-2v2l-16 8-5 3-10 1h-3l-1-4 5-2 20-9z" fill="#C3BBAF"/>
<path transform="translate(797,681)" d="m0 0h2v24l-8 8h-4l-2-21-1-7 5 1 5 8v2h2v-9z" fill="#282B39"/>
<path transform="translate(565,266)" d="m0 0h14l-1 2-33 4-26 7-16 8-10 8-4 5h-2l1-5 9-8 14-8 12-5 18-5 10-2z" fill="#131318"/>
<path transform="translate(1012,636)" d="m0 0h8l1 2 1 22 1 1-1 7-3 3-5-1-2-2v-6l4-4 3-1 1-11-3-1 2-4-17 4-5 1-1 2v-7z" fill="#181619"/>
<path transform="translate(189,437)" d="m0 0h6l3 4v2h-3l-2 5-17 7-6 4h-3l2-5 11-12 3-3z" fill="#282B3B"/>
<path transform="translate(361,241)" d="m0 0 1 3-5 20v17l8 4 4 3v3l-6-2-8-5-9-3h-17l-1 2-11-1v-1l10-1 7-3h10l8 2v-10l4-18 3-9z" fill="#222125"/>
<path transform="translate(1586,656)" d="m0 0 4 4 7 9 6 5 2 5 6 5 3 1v2l5 1 8 3 6 4 11 3 13 2 7 2v1h-14l-11-2-16-6-10-6-11-9-9-10-7-12z" fill="#27272C"/>
<path transform="translate(724,931)" d="m0 0h5l-12 9-3 6 12-2 7-1h9v2l-19 3-9 3-4 1v-4h-20l-2-1v-2l-6-2-3-2v-3l4 1 7 3h4l1 2h16l8-10z" fill="#100F14"/>
<path transform="translate(558,56)" d="m0 0 1 3-5 11-5 13-4 12-1 7v13l2 7 10 15-2 1-10-13-4-9v-15l2-10 6-18 8-16z" fill="#252427"/>
<path transform="translate(1600,632)" d="m0 0 4 1v2l-14 4-5 6-4 9-10 11-11 16-10 17-6 16-2 1 1-8 12-25 10-14 8-10 8-8 3-10 9-6z" fill="#222126"/>
<path transform="translate(1693,948)" d="m0 0h7l-1 2-24 11-21 9-10 5-1 3 14-7 3 1-22 12-20 12-2-1 10-7 11-6 4-2v-3l-5 2-10 5-3-1 12-7 24-11 12-6 13-5 7-4h2z" fill="#787162"/>
<path transform="translate(304,902)" d="m0 0h18l10 5-1 11-2 2-5-2v-2l-6-2-9-7-1-3z" fill="#2D303E"/>
<path transform="translate(152,451)" d="m0 0 3 4 4 7 3 15v10l-1 5-3-1-2-4v-6l-5-7 1-8-1-4-2-6-1-2 3-1z" fill="#6B6459"/>
<path transform="translate(188,451)" d="m0 0h3l-1 10-4 10-5 4-6-9-1-8z" fill="#676158"/>
<path transform="translate(1248,536)" d="m0 0h6l5 5 1 5-3 1-3-7-7 1-11 8-18 18-9 13-7 13v17l-2 3-1-7v-12l4-10 11-16 9-10 17-17z" fill="#19181E"/>
<path transform="translate(1546,808)" d="m0 0 1 3v2l4-1 4 5v11l-3 8-4 3-4-1-2-2v-9h1l2 9h2l-1-4 4-1v-5l1-1v-8l-4-1-7 14-5 18-2 1v-7l4-13 7-19z" fill="#201F23"/>
<path transform="translate(464,534)" d="m0 0h1l4 35v41l-1 13-2 1-1-52-3-34z" fill="#1F2025"/>
<path transform="translate(385,185)" d="m0 0m-1 1m-2 1 2 1-6 7-7 4-13 4-15 2 8 5 3 3 10 5v2l-10-3-8-5-10-10v-2l22-1 14-5z" fill="#17161A"/>
<path transform="translate(1917,962)" d="m0 0 5 1 3 5v11l-3 3h-7l-4-3-1-3v-7l5-6z" fill="#A29379"/>
<path transform="translate(325,859)" d="m0 0 25 7 3 3-7 8h-6l-9-9-3-2v-2l-3-1-1-3z" fill="#C4BCB0"/>
<path transform="translate(857,598)" d="m0 0h14l6 3 4 5 2 4v20l-6 26-3-1 4-17 2-8v-17l-2-7-6-5h-12l-17 6-8 5h-2v-2l-2-1 7-3 11-5z" fill="#343234"/>
<path transform="translate(1546,946)" d="m0 0h1l1 9 2 3h11l18-1 12-3 3 1-3 3-13 4-28 2h-7l-1-5 2-1 1-10z" fill="#2B2A2B"/>
<path transform="translate(133,434)" d="m0 0 11 2 1 3 3 1 4 8v5l-3 2 1 2-5-2-7-6-6-14z" fill="#88826E"/>
<path transform="translate(875,654)" d="m0 0 1 4-6 16-8 16-9 14-10 14-7 8-2-1 2-4 10-13 2-4h2l2-5 6-9 8-16 5-11 3-8z" fill="#1C1B1F"/>
<path transform="translate(518,356)" d="m0 0h11l10 3 13 7 11 9 10 9 1 3-5-2-14-12-13-8-13-5h-12l-9 2v-2z" fill="#141419"/>
<path transform="translate(341,425)" d="m0 0h14l19 2 18 6-1 3-17-5-9-1-46-1 2-3z" fill="#3F3F45"/>
<path transform="translate(539,304)" d="m0 0h18l17 2 16 6 2 1v2l-11-3-18-4h-28l-15 4-9 6-4 2 2-4 10-7 13-4z" fill="#1A1A1F"/>
<path transform="translate(1095,770)" d="m0 0 2 4 1 40 3 27v7h-2l-3-16-1-1-1-16v-32z" fill="#212023"/>
<path transform="translate(227,423)" d="m0 0h31v1l-16 1-15 2-8 2-26 6-10 3 2-4 11-5 18-4z" fill="#A7A294"/>
<path transform="translate(664,587)" d="m0 0 6 1 18 11 12 9 14 12 11 10 1 4-4-2-10-9-15-13-19-13-14-9z" fill="#9C8D73"/>
<path transform="translate(390,336)" d="m0 0h5l2 3-14 2-14 1-3 1-15 1 5 19v2l-3 1-5-17v-4h-5v-1h7v-2l-3-1 31-4z" fill="#313033"/>
<path transform="translate(1061,699)" d="m0 0 10 2 12 7 5 4 2 5-12-2-3-5-1 2h-8l-4-11z" fill="#A9A396"/>
<path transform="translate(1656,836)" d="m0 0h3l1 10v2l3 1v2h6l2 1 1-3 3-1 1 3-7 7-5 3h-3l-10-21 1-3z" fill="#8C8570"/>
<path transform="translate(591,101)" d="m0 0h1v8l-2 3 1 6-4 11 1 6 1 1v5l3 1v2l-5-1-5-7v-13l5-17 2-4z" fill="#A8A498"/>
<path transform="translate(1156,660)" d="m0 0 4 1-3 2-2 5 3 2v9l-5 6h-5v8h-1l-1-8-1-3 3-10 5-9z" fill="#414041"/>
<path transform="translate(704,934)" d="m0 0h13v3l-6 8h-16l-1-3 3-2-5-2 3-1h6v-2z" fill="#272A39"/>
<path transform="translate(1652,779)" d="m0 0 1 4-8 17-4 5-6 4-3 1 2 6 3 6v2l-5 1-3-8v-7l5-6h2v-2l5-5 6-10 2-2 2-5z" fill="#EEEDEA"/>
<path transform="translate(185,432)" d="m0 0v3l-2 3 3 1-5 3-8 8-6 9 18-9 6-1-3 3-13 6v8l-3-4v-2l-7 2-1-3 5-9 8-8 1-2h2v-3l-20 1v-2l23-2z" fill="#101015"/>
<path transform="translate(354,365)" d="m0 0h2l8 21 5 11v3l5-1v2l-16 6-15 5h-9v-2l12-2 8-3 12-4-1-5-7-16-4-11z" fill="#201F24"/>
<path transform="translate(452,282)" d="m0 0h3l2 3-1 8-6 9-5 4h-4l-9 3 3-3 8-6 6-11z" fill="#E9E8E4"/>
<path transform="translate(1714,677)" d="m0 0h6l-1 5-6 8-8 6-8 4-16 4h-14v-2h12v-2l14-3 10-4 7-5 1-3 4-4 1-3z" fill="#1D1C1F"/>
<path transform="translate(312,922)" d="m0 0h14l5 2 1-2 3 11h-10l-9-3-3-2v-3l2-1z" fill="#2B2E3C"/>
<path transform="translate(1678,959)" d="m0 0 3 3 3 6v5h-2l-4-10-5 2-3 2-2 6-1-3-7 2-5 1-10 5h-2l1-4 16-8z" fill="#8F866F"/>
<path transform="translate(1103,678)" d="m0 0h15l2 2-9 1-3 6-6 2-3 11-1 9-3-4 1-10 2-5v-7z" fill="#18181D"/>
<path transform="translate(397,816)" d="m0 0 1 2-11 14-14 18-10 13-3 4h-2l1-6 7-7 3-5 9-11h2l2-5 7-8z" fill="#F8F7F0"/>
<path transform="translate(232,552)" d="m0 0 7 4 14 10-1 10h-2l-1-7-5-4h-3v7l-3 1-6-18z" fill="#F5F4E9"/>
<path transform="translate(1043,695)" d="m0 0h14l-2 1v2l-6 1 5 8 1 5v12l-3 7-1-3 1-4v-15l-4-8-1-3-10 3-8 6-4 5-3 1 2-5 5-6 10-6z" fill="#444241"/>
<path transform="translate(1017,549)" d="m0 0 5 1 2 3v6l-4 4-7 1-1 21h-1v-30z" fill="#504E4C"/>
<path transform="translate(1323,811)" d="m0 0 2 1 2 16 1 10v14l-1 3-3-1v-18l-1-7h-2v-3h-2l1-7z" fill="#6D8CC0"/>
<path transform="translate(111,500)" d="m0 0h6l8 3 10 3 18 1-1 2-10 3-23-7 5 9-4-2-4-5-3-1-2-3z" fill="#1C1C21"/>
<path transform="translate(1104,784)" d="m0 0 5 2 10 7 9 6v8l-4 1-9-11-5-5-7-4z" fill="#6E8EC5"/>
<path transform="translate(440,480)" d="m0 0 4 2 10 19 6 16 4 15v7l-2-1-7-24-6-15-9-17z" fill="#222126"/>
<path transform="translate(1100,837)" d="m0 0 3 1 9 28 4 8v5l-3 1-5-10-4-12-3-15z" fill="#F9F8F1"/>
<path transform="translate(1346,832)" d="m0 0h3l1 7-1 5-4 5-3 1-3-1v-2h-2v-7l2-4z" fill="#5F7289"/>
<path transform="translate(343,939)" d="m0 0h9l4 4 8 7 5 7-1 2-4-2-13-9-8-8z" fill="#292C3B"/>
<path transform="translate(1079,756)" d="m0 0 9 5-1 3-12 4h-13v-1l8-1-6-3v-2l14-3z" fill="#676158"/>
<path transform="translate(1139,802)" d="m0 0 3 1 1 3 1 35-6 19h-3l4-17 1-4v-27z" fill="#211F23"/>
<path transform="translate(399,537)" d="m0 0h11v1l-10 1v2l-8 3-7 5-1 7 21 1 2 2-3 1h-19l-5-3-1-4 6-8 7-5z" fill="#272628"/>
<path transform="translate(1547,815)" d="m0 0 4 1 1 1v8l-2 6-3 1v4h-2l-2-3-2 1-2-4 7-14z" fill="#EBE9E6"/>
<path transform="translate(1141,640)" d="m0 0v3l-11 18-4 11-2 9h-5l-1-2h-17l1-2h17l3 1v-6l5-13 9-15z" fill="#222124"/>
<path transform="translate(460,352)" d="m0 0 3 2v4l-12 7-11 6-16 8-4 1-2-3v-3h8l7-3 16-8h2v-2l7-5z" fill="#EBE9E6"/>
<path transform="translate(1219,609)" d="m0 0h1l1 6 4 3v3l-12-3-2-1-19-1 2-3h7l1-3v2h11l4 1v-3z" fill="#19181D"/>
<path transform="translate(1542,730)" d="m0 0h1l1 29 4 22 4 11v2l-3-1-5-16-3-14v-30z" fill="#464548"/>
<path transform="translate(375,475)" d="m0 0h8l8 3 8 9 6 15v6h-3l-3-13-5-9-1-3-4-2-3-2h-14l-1-3z" fill="#26262A"/>
<path transform="translate(742,658)" d="m0 0 5 2 5 4-1 7v8l-2 2-4-6-3-11z" fill="#2A2C3A"/>
<path transform="translate(996,653)" d="m0 0h1l1 10 1 1-1 7-3 3h-5l-3-2v-7l5-4 3-1z" fill="#1A191D"/>
<path transform="translate(1604,634)" d="m0 0h14l4 2-9 2v2l-14 1h-9l-5 5 1-4 6-5z" fill="#A39D8F"/>
<path transform="translate(1800,959)" d="m0 0h15l5 5v7l-3 6-1-3h-2l-3-8-6-5-5-1z" fill="#666158"/>
<path transform="translate(481,328)" d="m0 0h14v8l-5 5-6 4 2-5 5-5 1-4-18 1h-17v-1l10-1 2-1z" fill="#22232B"/>
<path transform="translate(1798,964)" d="m0 0 8 1 4 4-1 4v-2l-8 1-7 8h-2v-8z" fill="#ADA79B"/>
<path transform="translate(342,900)" d="m0 0 8 4 8 9 2 4v6l-3 4-7 1-8-6-6-10 1-3 8 11 1 3 5 2 5-1 1-6-6-9-7-6-2-1z" fill="#121117"/>
<path transform="translate(1349,781)" d="m0 0h13l6 7 1 2v6h-2v9h-1l-1-15-4-6h-8l-10 3-14 6v-3z" fill="#202026"/>
<path transform="translate(1584,653)" d="m0 0 2 1v2l-6 5-11 15-9 14-3 1 3-9h2l2-4 2-5h2l2-5 9-11z" fill="#28272C"/>
<path transform="translate(130,388)" d="m0 0h2l7 24 9 22 2 6-4-1-3-8-8-20-5-20z" fill="#252529"/>
<path transform="translate(137,474)" d="m0 0h13l3 5 1 8-4 1-5-5-5-4-3-3z" fill="#2A2D3C"/>
<path transform="translate(1669,801)" d="m0 0 5 3 7 8 4 10v13l-2 7h-3l1-16-1-8h-2l-2-9-7-6z" fill="#6D6960"/>
<path transform="translate(1597,830)" d="m0 0 4 2v2l4-2-1 6-6 7-4 2h-5l-1-2 5-1-1-10 2-1 1 2 3 1z" fill="#1E1D1F"/>
<path transform="translate(1012,636)" d="m0 0h8l1 4-2 3v-2l-17 4-5 1-1 2v-7z" fill="#1B1A1E"/>
<path transform="translate(1139,828)" d="m0 0h1v15l-5 17-4 10-2 1 1-9 6-17v-8z" fill="#FAF9F1"/>
<path transform="translate(331,280)" d="m0 0h15l9 3-2 2h-7l-5 1-1 3-6-2-5-4v-2z" fill="#9C8E75"/>
<path transform="translate(464,534)" d="m0 0h1l4 35v25h-1v-24h-2l-1 2-3-34z" fill="#2D2D32"/>
<path transform="translate(316,285)" d="m0 0h10l5 2v2l-12 2-6 4-5 6-1-4 4-8z" fill="#635E57"/>
<path transform="translate(1655,745)" d="m0 0h5l3 3v12h-1l-1-5h-1l-1-6-9 2-16 8-13 7v-3l10-6 16-8z" fill="#323133"/>
<path transform="translate(565,266)" d="m0 0h14l-1 2-33 4-10 1 2-3 14-3z" fill="#111116"/>
<path transform="translate(218,421)" d="m0 0 4 1 5 1v1l-24 4-10 3-7 3v-3l13-6z" fill="#2F2D2F"/>
<path transform="translate(1101,785)" d="m0 0h3v3l10 6 10 13h3l1-8 4 1h-2v10l-5 1-6-5-5-7v-2l-4-2-5-3-4-2z" fill="#282628"/>
<path transform="translate(1050,760)" d="m0 0h17l-3 1v2l9 3v1h-14l-11-3z" fill="#89846F"/>
<path transform="translate(1621,691)" d="m0 0 9 4 20 4 14 3v1h-14l-11-2-16-6-4-3z" fill="#222229"/>
<path transform="translate(1130,800)" d="m0 0 9 2 1 1v14l-1-4-9-1z" fill="#FAFAF2"/>
<path transform="translate(1081,736)" d="m0 0h3v2l6 1 1-2 2 1-1 7-2 7-4-1-2-2v-6l-3-4z" fill="#2B2C38"/>
<path transform="translate(1677,648)" d="m0 0 5 5 9 10 5 5 5 4 9 3 9 1v1l-9 1-9-3-9-7-6-5-5-5-5-8z" fill="#3B3D43"/>
<path transform="translate(388,475)" d="m0 0 6 1 8 9 4 11v9l-2-3-5-13-6-8-5-4z" fill="#F8F8F1"/>
<path transform="translate(266,420)" d="m0 0 9 1 22 5-2 3-23-4-13-2v-1z" fill="#232227"/>
<path transform="translate(1539,747)" d="m0 0h1l4 27 3 11 4 9-1 5-2-2-4-11-3-10-2-15z" fill="#A1A092"/>
<path transform="translate(517,98)" d="m0 0 4 2-2 7-6 10-3 3h-4l2-4 6-11z" fill="#9A9276"/>
<path transform="translate(1095,936)" d="m0 0h12l6 6v4h-11l2-2-4-4-5-2z" fill="#282A37"/>
<path transform="translate(313,510)" d="m0 0 10 1v1l-11 1-10 5-5 4-3 4-1 5h7v1l7 1v1h-15l-2-3 1-5 5-7 11-7z" fill="#2C2B2E"/>
<path transform="translate(304,454)" d="m0 0 8 4 7 11 6 15v6h-5v-3h2l-1-9h-2l-3-9-5-7v-2l-5-2-3-2z" fill="#2D2C2D"/>
<path transform="translate(1554,817)" d="m0 0h1v11l-3 8-4 3-4-1-2-2v-9h1l2 9h2l-1-4 4-1v-5l2-7z" fill="#2C2A2C"/>
<path transform="translate(882,610)" d="m0 0h1v20l-6 26-3-1 4-17 2-8v-19z" fill="#37383F"/>
<path transform="translate(1693,948)" d="m0 0h7l-1 2-24 11-19 8-2-1 10-6 20-8 7-4h2z" fill="#7A7364"/>
<path transform="translate(791,830)" d="m0 0h1v20l-5 16-5 14h-2l1-5 3-8 4-16z" fill="#1F2029"/>
<path transform="translate(462,555)" d="m0 0h2l1 3 1 14v24h-1l-3-22z" fill="#F1F0E8"/>
<path transform="translate(316,510)" d="m0 0h11l7 4 6 7 5 13v10l-3-4-2-11-5-10-7-5-5-2-7-1z" fill="#1F1F24"/>
<path transform="translate(351,211)" d="m0 0 9 3 14 3 8 1h35v1l-10 1h-36l-13-4-7-4z" fill="#383943"/>
<path transform="translate(402,560)" d="m0 0 5 1 8 7 6 7 5 2v1h-6l-6-4v-2h-2l-5-5-8-4v-2z" fill="#F5F5EE"/>
<path transform="translate(400,538)" d="m0 0h14l8 6 5 9 1 4v15h-1l-2-16-6-10-5-4-6-2h-9z" fill="#1C1B1F"/>
<path transform="translate(591,118)" d="m0 0h1v15l3 10v3l-5-1 2-1-3-3-3-11 3-10z" fill="#A39275"/>
<path transform="translate(1061,699)" d="m0 0 10 2 3 7v4h-8l-4-11z" fill="#ADA99E"/>
<path transform="translate(468,610)" d="m0 0h1v14l-2 26-1 9-3-3 3-32 1-1z" fill="#17171E"/>
<path transform="translate(1906,957)" d="m0 0h12l-1 2h-3v2l-5 5-3 8-2-1v-12z" fill="#686258"/>
<path transform="translate(1928,973)" d="m0 0 1 4 5 2 2 4-9 4h-11l-3-2 10-1 4-4z" fill="#B4AEA2"/>
<path transform="translate(1029,711)" d="m0 0h7l-1 7-5 8h-3v-12z" fill="#121115"/>
<path transform="translate(376,500)" d="m0 0 4 1 5 4 7 8 8 5h6l-2 4h-6l-8-7-1-3-5-2v-2l-3-1z" fill="#F6F6EE"/>
<path transform="translate(484,342)" d="m0 0m-2 1h2l-2 4-15 11-13 8-6 2 5-5 14-9z" fill="#1E1E23"/>
<path transform="translate(1558,677)" d="m0 0 2 1-1 5-9 15-6 16-2 1 1-8 12-25z" fill="#2D2C2E"/>
<path transform="translate(789,681)" d="m0 0h7l1 6-1 9h-2l-4-6-1-3-4-4z" fill="#3C3C45"/>
<path transform="translate(1540,728)" d="m0 0h1v26h-1l-2 12h-1l-1-5v-21l2-1z" fill="#6D695F"/>
<path transform="translate(516,96)" d="m0 0 5 1 2 1v8l-3-2-1-5-2-1-1 6-6 9-3 5h-3l2-5z" fill="#1F1F23"/>
<path transform="translate(1596,812)" d="m0 0 7 2 7 8 1 4-3-1-5-5-4-3h-13l-1-3z" fill="#EEECEB"/>
<path transform="translate(1367,796)" d="m0 0h2v12l-4 16-2 3-2-1 2-9 2-12h2z" fill="#1C1C23"/>
<path transform="translate(452,128)" d="m0 0 3 1 3 2-12 3-10 6-8 6v-3l5-5 10-7z" fill="#242326"/>
<path transform="translate(1084,764)" d="m0 0 2 1v2l-5 2-7 1h-14l-12-3 2-2 9 1 3 1h13z" fill="#27272B"/>
<path transform="translate(354,365)" d="m0 0h2l8 21 5 11-2 4-9-21-4-11z" fill="#2C2B2D"/>
<path transform="translate(302,248)" d="m0 0h7l17 4 8 3 14 7 1 2-6-2-10-5-18-5-12-2z" fill="#575554"/>
<path transform="translate(605,76)" d="m0 0 2 1-2 2-2 10-4 2-2 4-5 4 1-6 3-5 5-9z" fill="#A6A297"/>
<path transform="translate(369,477)" d="m0 0 4 1-2 2-7 3-9 6-4 2 1 5h6l3 3h-9l-3-3v-6l12-9z" fill="#212025"/>
<path transform="translate(558,305)" d="m0 0h9l9 2 14 5 2 1v2l-11-3-23-5z" fill="#191920"/>
<path transform="translate(341,203)" d="m0 0h13v1l-11 1 8 5 3 3 10 5v2l-10-3-8-5-5-5-1-2z" fill="#202024"/>
<path transform="translate(971,589)" d="m0 0 6 1 4 4v11l-3 1v-10l-5-4v35h-1z" fill="#3E3C3A"/>
<path transform="translate(1538,917)" d="m0 0 4 2 6 11 1 2-1 23h-1l-1-12v-9l-8-14z" fill="#3E3C3B"/>
<path transform="translate(1582,775)" d="m0 0m-5 1h5l-3 3-10 4-9 7-5 5-4 2v-3l8-7 7-6z" fill="#1F1F23"/>
<path transform="translate(1074,708)" d="m0 0 2 2 3 12v13l-5 15-3 1 1-5 3-7 1-8v-11z" fill="#5D5A56"/>
<path transform="translate(425,332)" d="m0 0 4 1h-2v2l-12 2-21 1 1-2 12-2z" fill="#1E1E24"/>
<path transform="translate(600,30)" d="m0 0h1l3 14 2 10v5h-2v8h-1l-2-18-2-9z" fill="#222126"/>
<path transform="translate(340,902)" d="m0 0h4l6 7-1 6-5-1-4-5-1-4z" fill="#3D3D45"/>
<path transform="translate(1031,704)" d="m0 0 2 1-2 4 3 1-5 2-2 5-2 16-2-1v-14l3-8z" fill="#B1AA9D"/>
<path transform="translate(456,694)" d="m0 0 1 2h2l-3 15-5 16h-2l1-9 4-16z" fill="#201F24"/>
<path transform="translate(1661,750)" d="m0 0h1v13l-8 24-2-4 3-10 3-9z" fill="#2F2E31"/>
<path transform="translate(480,189)" d="m0 0 4 1-9 6-16 7-10 3h-3v-2l20-7 8-4h3v-2h3z" fill="#4C4B4E"/>
<path transform="translate(543,98)" d="m0 0 1 4v13l2 7 10 15-2 1-10-13-4-9 1-3 1-12z" fill="#4E4B48"/>
<path transform="translate(456,764)" d="m0 0h2l-2 5-9 7-4 4h-2v2h-2l-2 4-3-1 12-13z" fill="#A9A599"/>
<path transform="translate(797,681)" d="m0 0h2v24l-8 8h-3v-4l5-2 2-4 1-6z" fill="#0B0A0E"/>
<path transform="translate(452,282)" d="m0 0 2 1-1 7-6 9-7 7-6 3-2-1 11-8 6-11z" fill="#C4BCB0"/>
<path transform="translate(1013,641)" d="m0 0h6l-1 3-16 5h-4l1-4z" fill="#DCD9D5"/>
<path transform="translate(465,617)" d="m0 0h1v15l-2 21-1 5h-1l-1-13 2-14h2z" fill="#CCCAC0"/>
<path transform="translate(191,448)" d="m0 0m-3 1 3 1-16 8v8l-3-4v-2l-7 2-1-3 4-4-1 4 18-9z" fill="#0B0A0E"/>
<path transform="translate(408,385)" d="m0 0h3v2l-14 6-20 7-2-1 10-5 17-6z" fill="#1B1B20"/>
<path transform="translate(318,905)" d="m0 0 5 1 7 3v3l-7 1-6-2v-2h-2v-3z" fill="#3E3E46"/>
<path transform="translate(1048,698)" d="m0 0h9l5 6-3 2-5 2z" fill="#ACA89C"/>
<path transform="translate(875,654)" d="m0 0 1 4-6 16-4 9-3-1 2-6 5-10 3-10z" fill="#26262A"/>
<path transform="translate(741,664)" d="m0 0h2l4 13 2 3 2-1 2 6-1 4-7-8-4-10z" fill="#100F14"/>
<path transform="translate(196,445)" d="m0 0h2l3 8-1 4-5 3-3 7-1-3z" fill="#282B3B"/>
<path transform="translate(1055,696)" d="m0 0h9l12 5 8 5-1 3-8-5-12-5-8-1z" fill="#1E1E23"/>
<path transform="translate(240,577)" d="m0 0h2v2l4 2 4 1-2 10-2 3-6-16z" fill="#F3EFDD"/>
<path transform="translate(1683,899)" d="m0 0 3 1-2 4-4 4h-6l-1-5z" fill="#F4F2F1"/>
<path transform="translate(1139,802)" d="m0 0 3 1 1 3 1 31h-2l-1-5-1-20z" fill="#2F313E"/>
<path transform="translate(1582,652)" d="m0 0 1 2-2 3h-2l-2 4-8 10-1 2h-2l-1 5-5 5-1-2 12-17z" fill="#ACB893"/>
<path transform="translate(586,13)" d="m0 0 7 1 5 8 2 7v5l-3-2-3-10-3-4v-2h-5l-2 1z" fill="#17171B"/>
<path transform="translate(1112,798)" d="m0 0 3 1 7 9 3 2-1 2-7-2-5-6-1-5z" fill="#FAFAF1"/>
<path transform="translate(864,681)" d="m0 0 1 3-9 16-4 4h-2l2-5 6-9 4-7zm-16 23 2 1-2 1z" fill="#1D1C21"/>
<path transform="translate(465,596)" d="m0 0h1v21l-1 14-3-1 1-17z" fill="#FEFEF6"/>
<path transform="translate(343,344)" d="m0 0h8l5 19v2l-3 1-5-17v-4h-5z" fill="#595755"/>
<path transform="translate(1159,622)" d="m0 0 3 1-5 5-9 7-5 6-4 1 2-4 12-12z" fill="#151519"/>
<path transform="translate(232,552)" d="m0 0 7 4 4 3v2h-3l-2 5-2 1-4-12z" fill="#EEE9D7"/>
<path transform="translate(657,4)" d="m0 0h5l4 5 1 7h-4l-2-5-3-1-1-3z" fill="#A7A398"/>
<path transform="translate(1577,826)" d="m0 0 2 2 2 10 5 5 7 1-4 3-6-2-5-5-2-5z" fill="#302E2F"/>
<path transform="translate(1146,684)" d="m0 0h1l2 13 2 3 8-1-2 4-6 1-4-4-2-3v-12z" fill="#17161B"/>
<path transform="translate(1600,632)" d="m0 0 4 1v2l-14 4-5 6-1 2h-2l2-7 9-6z" fill="#2A292B"/>
<path transform="translate(1558,683)" d="m0 0 1 3-2 5 2 1-5 9h-2l1-5-5 11-1-3 4-10z" fill="#7B796C"/>
<path transform="translate(507,281)" d="m0 0m-2 1 2 1v2l-11 7-7 8h-2l1-5 9-8z" fill="#16161C"/>
<path transform="translate(1658,967)" d="m0 0h6l-4 3-15 8h-2l1-4z" fill="#ACA89C"/>
<path transform="translate(1541,822)" d="m0 0 1 3-5 16-2 7-2 1v-7l4-13 2-6z" fill="#272629"/>
<path transform="translate(1634,804)" d="m0 0m-1 1m-1 1m-1 1 3 2-2 1 2 6 3 6v2l-5 1-3-8v-7z" fill="#F2F1EF"/>
<path transform="translate(319,799)" d="m0 0 4 2 9 8 10 6v1l-7-1-12-9-4-6z" fill="#F8F8F0"/>
<path transform="translate(429,141)" d="m0 0m-2 1 2 1-4 6-5 5-6 5-6 4 2-4z" fill="#1B1A1F"/>
<path transform="translate(308,923)" d="m0 0h10l-3 2h-2v3l9 3 4 2v2l-9-2-9-7z" fill="#1C1C20"/>
<path transform="translate(1538,760)" d="m0 0 2 1 3 19 2 6-1 4-3-6-3-14z" fill="#1B1B20"/>
<path transform="translate(1614,736)" d="m0 0h5v2l-7 2-13 12-11 12v-3l12-13 11-10z" fill="#535355"/>
<path transform="translate(456,513)" d="m0 0h2l4 11 2 8v7l-2-1-6-21z" fill="#1A1A1F"/>
<path transform="translate(539,304)" d="m0 0h18l1 3h-24l1-2z" fill="#26272E"/>
<path transform="translate(369,427)" d="m0 0 7 1 14 4 2 1-1 3-17-5-9-1z" fill="#393A40"/>
<path transform="translate(319,429)" d="m0 0h46v1l-43 1-7 6 2-5z" fill="#E5E3E0"/>
<path transform="translate(1644,646)" d="m0 0h6l5 3-4 2 4 6 7 8-1 2-10-11-7-9z" fill="#A0977E"/>
<path transform="translate(852,600)" d="m0 0 4 2-15 6-6 4h-2v-2l-2-1 7-3 11-5z" fill="#29282B"/>
<path transform="translate(127,347)" d="m0 0h8l-3 2-6 3h-2l-1 3h-2l-2 4-3 4 1-7 6-7z" fill="#ABA599"/>
<path transform="translate(1349,781)" d="m0 0 4 1v2l-10 3-14 6v-3z" fill="#2E2D31"/>
<path transform="translate(1204,582)" d="m0 0 2 3-4 8v17l-2 3-1-7v-12l4-10z" fill="#2E2F34"/>
<path transform="translate(1022,554)" d="m0 0h1v6l-3 3-7 1-1 21h-1v-26l2-3 1 4 8-1z" fill="#353641"/>
<path transform="translate(111,500)" d="m0 0h6l4 5h-2l5 9-4-2-4-5-3-1-2-3z" fill="#33333A"/>
<path transform="translate(1915,963)" d="m0 0h4v7l-4 3-4 1v-6z" fill="#F9F9F1"/>
<path transform="translate(652,907)" d="m0 0 5 1v2l4-1 2 6h-6l-2-2h-4l-2-5z" fill="#3D3D46"/>
<path transform="translate(298,431)" d="m0 0h7l6 2-1 4-5 1-3-1-4-4z" fill="#A6A193"/>
<path transform="translate(1901,954)" d="m0 0 15 1v1l-10 1-2 6-1 9-2-4z" fill="#151519"/>
<path transform="translate(342,900)" d="m0 0 8 4 8 9 2 4v6l-2-1-3-8-9-10-4-2z" fill="#101016"/>
<path transform="translate(1586,764)" d="m0 0 1 2-3 8h7v1l10 1v1l-15 1-7 1 3-4 1-7z" fill="#3F3F40"/>
<path transform="translate(241,677)" d="m0 0 5 5 4 8-9-1z" fill="#EAE8E5"/>
<path transform="translate(1221,560)" d="m0 0 3 1-9 10-8 12-2 1 1-5 12-16z" fill="#25252C"/>
<path transform="translate(428,282)" d="m0 0h1v7l-2 1h-6l-1-1v-5l1-1h6z" fill="#E9E6E4"/>
<path transform="translate(389,185)" d="m0 0h2l-1 7 3 1-8 1-1 3v-3l-5 1 2-4 6-4z" fill="#A09A7E"/>
<path transform="translate(586,15)" d="m0 0 5 1 2 3v3h-12l-1 2 1-4z" fill="#AAA69B"/>
<path transform="translate(1683,877)" d="m0 0h7l5 5v7l-2 3-3 1 1-11-7-2z" fill="#373536"/>
<path transform="translate(449,728)" d="m0 0 1 3-5 20-3 1 2-11 4-12z" fill="#17171C"/>
<path transform="translate(397,816)" d="m0 0 1 2-11 14-4 4-1-3 7-8z" fill="#F4F4EC"/>
<path transform="translate(443,751)" d="m0 0h1v9l-3 10h-3l1-7 2-11z" fill="#2C2B2D"/>
<path transform="translate(1118,907)" d="m0 0 1 2h2l-4 18-2 1-2 3 1-7z" fill="#2B2A2E"/>
<path transform="translate(1136,859)" d="m0 0 1 4-5 14-4 1 6-18z" fill="#242327"/>
<path transform="translate(443,762)" d="m0 0 8 2-10 10-2-1z" fill="#97896F"/>
<path transform="translate(1043,695)" d="m0 0h14l-2 1v2l-13 1-4 1-1-3z" fill="#343335"/>
<path transform="translate(1677,648)" d="m0 0 5 5 9 10-3 2-5-5-6-8-1-3z" fill="#4E4D4D"/>
<path transform="translate(386,557)" d="m0 0h19l2 2-3 1h-19z" fill="#404149"/>
<path transform="translate(1642,979)" d="m0 0 2 1-9 6-17 10-2-1 10-7 11-6z" fill="#6B675D"/>
<path transform="translate(1592,637)" d="m0 0 4 1h13l2 2-12 1h-9l-5 5 1-4z" fill="#A2977D"/>
<path transform="translate(1242,543)" d="m0 0 3 1-11 10-8 7-4 3 2-4 13-13z" fill="#A0A5A9"/>
<path transform="translate(361,495)" d="m0 0h11l8 3-1 3-6-3h-19l4-2z" fill="#1D1C21"/>
<path transform="translate(304,903)" d="m0 0h5l2 5 11 7 2 1v2h2v2l-5-1v-2l-4-2-9-7z" fill="#201F23"/>
<path transform="translate(1543,776)" d="m0 0 2 1 5 16 1 5-2 1-5-13z" fill="#ACB598"/>
<path transform="translate(1124,671)" d="m0 0h1l-1 10h-5l-1-2h-17l1-2h17l3 1v-6z" fill="#3F3F40"/>
<path transform="translate(240,572)" d="m0 0h2l2 5 7-1-1 6-3 1-5-4v-2l-3-1z" fill="#FBFBF2"/>
<path transform="translate(1798,964)" d="m0 0 5 1-1 4-3 3-4 1-1-4z" fill="#F1F0EB"/>
<path transform="translate(1544,771)" d="m0 0 2 1 3 12 3 10-3-1-5-16z" fill="#474647"/>
<path transform="translate(1630,626)" d="m0 0h12l5 1 1 3-7-1h-11l-8 1 1-2z" fill="#555352"/>
<path transform="translate(433,371)" d="m0 0m-1 1 3 2-13 6-3-1-1-5h8z" fill="#EAE7E5"/>
<path transform="translate(551,365)" d="m0 0 5 1v2l4 2 15 14h-3l-12-11-9-7z" fill="#A29C8E"/>
<path transform="translate(1362,825)" d="m0 0 1 4-6 10-6 3 2-4 6-9 1-3z" fill="#1B1A1E"/>
<path transform="translate(1101,785)" d="m0 0h3v3l10 6 3 5-2 2-1-4-4-2-5-3-4-2z" fill="#3A3A3E"/>
<path transform="translate(1655,745)" d="m0 0h5l3 3v12h-1l-1-5h-1l-1-6h-8v-2z" fill="#504D4A"/>
<path transform="translate(303,476)" d="m0 0 5 2 12 9v2l-5-2-11-8-3-2z" fill="#242326"/>
<path transform="translate(1822,982)" d="m0 0h2l-1 4-6 4-4 1h-8v-1l10-3 4-4z" fill="#B3AEA2"/>
<path transform="translate(438,780)" d="m0 0m-1 1m-1 1m-2 1 2 1-9 10-4 4h-2l-1 3-1-2 7-8z" fill="#9A958B"/>
<path transform="translate(1619,739)" d="m0 0h2v13l-2 11-2-3 1-11z" fill="#525254"/>
<path transform="translate(1100,689)" d="m0 0 1 3-2 8-1 9-3-4 1-10 2-5z" fill="#242428"/>
<path transform="translate(379,556)" d="m0 0 6 3 17 1-3 2h-17l-3-4z" fill="#FCFBF5"/>
<path transform="translate(1016,553)" d="m0 0h5v6l-3 2h-4v-6z" fill="#EAE9E6"/>
<path transform="translate(422,543)" d="m0 0 5 2 3 7v5h-3l-4-10z" fill="#F4F4EC"/>
<path transform="translate(313,287)" d="m0 0 3 1-2 6-6 7-1-4 4-8z" fill="#7E796B"/>
<path transform="translate(461,676)" d="m0 0h1l-1 13-2 7h-2l1-11z" fill="#14141A"/>
<path transform="translate(448,365)" d="m0 0 2 1-1 3-14 8h-2l-1-3 14-7z" fill="#2A292B"/>
<path transform="translate(484,336)" d="m0 0 2 1-10 8-7 5-4-2 15-9z" fill="#C2BAAF"/>
<path transform="translate(1645,699)" d="m0 0 12 1 7 2v1h-14l-8-1z" fill="#212126"/>
<path transform="translate(405,167)" d="m0 0v3l-14 15-4 1 6-7z" fill="#17171B"/>
<path transform="translate(1671,904)" d="m0 0 1 3h8l-2 4-5 4h-2z" fill="#DBD8CC"/>
<path transform="translate(1692,891)" d="m0 0 1 3-7 12-3 2-1-2 6-10z" fill="#232225"/>
<path transform="translate(1540,831)" d="m0 0 2 3 3 5-8 4 1-10z" fill="#F8F7F3"/>
<path transform="translate(732,449)" d="m0 0 4 2 9 10 7 8h-3l-7-7-7-8-3-3z" fill="#92856E"/>
<path transform="translate(466,355)" d="m0 0m-2 1h2l-1 3-11 7-6 2 5-5z" fill="#19181C"/>
<path transform="translate(233,569)" d="m0 0 2 3 6 17-1 4-5-12-2-8z" fill="#282B3B"/>
<path transform="translate(337,516)" d="m0 0 5 2 3 8-1 6-7-14z" fill="#F4F3EB"/>
<path transform="translate(1131,655)" d="m0 0 1 2-6 15h-3l3-11z" fill="#19191E"/>
<path transform="translate(1604,632)" d="m0 0h18l2 3-21-1z" fill="#111016"/>
<path transform="translate(413,375)" d="m0 0 3 1 1 6-11 5-4-1 10-5 1-2z" fill="#ECEAE8"/>
<path transform="translate(1535,901)" d="m0 0h1l4 16-3 1-4-12v-2h2z" fill="#343434"/>
<path transform="translate(1532,847)" d="m0 0 3 1-1 11h-2l-1 9h-1v-10z" fill="#444242"/>
<path transform="translate(1591,774)" d="m0 0h11l6 1 1 5-6-2-2-1-11-1z" fill="#141319"/>
<path transform="translate(1014,644)" d="m0 0 4 1 2 1v11h-1v-10l-8 2h-5v-2z" fill="#413E3B"/>
<path transform="translate(164,475)" d="m0 0 5 2 3 3-7 2v9h-1z" fill="#282B3B"/>
<path transform="translate(403,337)" d="m0 0 2 1 2 9 1 5h-2l-1 2-3-11v-5z" fill="#353437"/>
<path transform="translate(434,331)" d="m0 0h6l4 3-6 1h-11v-2z" fill="#363639"/>
<path transform="translate(1668,911)" d="m0 0h1l1 8v15l-3-2z" fill="#24242B"/>
<path transform="translate(1564,678)" d="m0 0 2 3-7 10h-2l3-9h2z" fill="#434246"/>
<path transform="translate(178,507)" d="m0 0 4 4 6 14-1 3-8-16z" fill="#191A24"/>
<path transform="translate(449,363)" d="m0 0 1 2-10 6-4 2-3-1 9-6z" fill="#F0EEEC"/>
<path transform="translate(339,342)" d="m0 0h11v2l-7 1h-11l-2-2z" fill="#141319"/>
<path transform="translate(543,93)" d="m0 0h1l-1 8-1 14-2-2v-12z" fill="#0E0D12"/>
<path transform="translate(338,879)" d="m0 0 8 2 2-1-2 6h-4l-5-6z" fill="#EFEDE0"/>
<path transform="translate(1130,876)" d="m0 0 1 4-4 10-3 1 3-11z" fill="#16151A"/>
<path transform="translate(1025,717)" d="m0 0h1v12l-2 4-1-1v-14z" fill="#ACA394"/>
<path transform="translate(468,610)" d="m0 0h1v14l-2 12-2 1 1-13 1-1z" fill="#1C1C24"/>
<path transform="translate(376,500)" d="m0 0 4 1 5 4 5 7-4-1-2-1v-2l-3-1z" fill="#F9F8F1"/>
<path transform="translate(199,425)" d="m0 0 2 1v3l-15 5v-3z" fill="#2F2E30"/>
<path transform="translate(406,352)" d="m0 0h3l4 11v2l-3 1-4-11z" fill="#262427"/>
<path transform="translate(385,185)" d="m0 0m-1 1m-2 1 2 1-6 7-7 3 2-5z" fill="#1D1B1F"/>
<path transform="translate(1098,776)" d="m0 0 5 5-2 9-3-4z" fill="#ECEAE8"/>
<path transform="translate(355,340)" d="m0 0h6v1l5 1v1l-16 1v-2l-3-1z" fill="#323237"/>
<path transform="translate(628,846)" d="m0 0 1 2-5 8-1-4-8 5 1-3 7-5z" fill="#5C5B57"/>
<path transform="translate(1077,732)" d="m0 0h1l-1 10-4 9h-2l1-5 4-11z" fill="#25252A"/>
<path transform="translate(851,703)" d="m0 0 1 2-7 10-4 1 2-4 4-6z" fill="#16161B"/>
<path transform="translate(226,546)" d="m0 0 2 3 5 17-1 3-6-15z" fill="#282B3B"/>
<path transform="translate(1679,878)" d="m0 0h9l-4 2-10 3-3 1-1-3z" fill="#242325"/>
<path transform="translate(449,770)" d="m0 0m-1 1m-2 1 2 1-4 5-1 2h-2v2h-2l-2 4-3-1z" fill="#A7A296"/>
<path transform="translate(142,426)" d="m0 0 3 1 5 13-4-1-3-8z" fill="#242225"/>
<path transform="translate(439,134)" d="m0 0m-2 1h2v3l-11 8v-3l5-5z" fill="#201F23"/>
<path transform="translate(1669,960)" d="m0 0 4 1-10 5-9 3 3-3z" fill="#65635C"/>
<path transform="translate(1659,701)" d="m0 0h20v1h-12v2h-14v-1l6-1z" fill="#3C3C44"/>
<path transform="translate(1042,698)" d="m0 0h5l3 5-1 2-11-4z" fill="#A9A497"/>
<path transform="translate(1248,536)" d="m0 0h6l5 5 1 5-3 1-3-7-6-3z" fill="#2B2A2C"/>
<path transform="translate(306,530)" d="m0 0h5v1l6 1v1h-22v-1z" fill="#232225"/>
<path transform="translate(290,528)" d="m0 0h3v3h7v1l7 1v1h-15l-2-3z" fill="#3E3F46"/>
<path transform="translate(354,365)" d="m0 0h2l4 10v5h-2l-4-11z" fill="#252427"/>
<path transform="translate(130,346)" d="m0 0h7l8 5 5 5-1 2-8-7-6-2v-2h-5z" fill="#9B9586"/>
<path transform="translate(321,344)" d="m0 0h11l6 1v1l-7 1h-11z" fill="#38383B"/>
<path transform="translate(493,334)" d="m0 0h2l-1 4-9 7-1-2 7-8z" fill="#232224"/>
<path transform="translate(1554,817)" d="m0 0h1v11h-3l-1 4-5 2 1-3h3v-5l2-7z" fill="#5A5856"/>
<path transform="translate(1055,696)" d="m0 0h9l6 2v3l-7-2-8-1z" fill="#1C1D21"/>
<path transform="translate(674,601)" d="m0 0 5 1 14 10-3 1-10-7-6-4z" fill="#90836C"/>
<path transform="translate(134,469)" d="m0 0 6 3 11-1 1 4h-14l-4-4z" fill="#0B0A0F"/>
<path transform="translate(1549,812)" d="m0 0 4 2 1 1v9h-1l-2-7-4-1-2 2-1-3z" fill="#252428"/>
<path transform="translate(1679,701)" d="m0 0h5l-3 3h-14v-2z" fill="#1A191D"/>
<path transform="translate(460,539)" d="m0 0 3 2 1 14h-2l-2-8z" fill="#FAF9F2"/>
<path transform="translate(118,502)" d="m0 0 7 1 7 2-1 3-9-2z" fill="#28282D"/>
<path transform="translate(304,454)" d="m0 0 8 4 4 7-4-2-1-3-5-2-3-2z" fill="#2F2F32"/>
<path transform="translate(288,424)" d="m0 0 9 2-2 3-17-3v-1l10 1z" fill="#313136"/>
<path transform="translate(430,375)" d="m0 0h3l-1 3-12 5-2-1 10-6z" fill="#1A191C"/>
<path transform="translate(589,149)" d="m0 0 4 2 2 3-1 3-6-2z" fill="#EBE9E1"/>
<path transform="translate(545,123)" d="m0 0h2l3 5 6 9-2 1-9-12z" fill="#212125"/>
<path transform="translate(724,931)" d="m0 0h5l-12 9-2-1 4-5z" fill="#0D0C11"/>
<path transform="translate(1582,652)" d="m0 0 1 2-2 3h-2l-2 4-5 6-2-2z" fill="#A9B690"/>
<path transform="translate(307,533)" d="m0 0 4 1-12 3-7-2v-1z" fill="#FDFCF7"/>
<path transform="translate(366,391)" d="m0 0 3 1v3l9 1-4 3-5 1z" fill="#E6E4E1"/>
<path transform="translate(364,339)" d="m0 0h11v2l-6 1h-9l1-2z" fill="#121218"/>
<path transform="translate(1586,817)" d="m0 0 2 1v2l-6 4-2 4h-2l1-5z" fill="#28272B"/>
<path transform="translate(1546,700)" d="m0 0 2 4-5 11h-1l1-8z" fill="#3B3A3C"/>
<path transform="translate(399,537)" d="m0 0h11v1l-10 1v2l-9 2 1-3z" fill="#3A383A"/>
<path transform="translate(532,305)" d="m0 0 3 1v2l-13 3v-3z" fill="#181820"/>
<path transform="translate(1335,926)" d="m0 0 3 2-2 10-4 5 1-7z" fill="#B9B2A6"/>
<path transform="translate(1365,816)" d="m0 0h2l-3 11-3-1 2-9z" fill="#232329"/>
<path transform="translate(413,797)" d="m0 0 2 1-9 11-2-2 7-8z" fill="#F3F2EA"/>
<path transform="translate(664,587)" d="m0 0 6 1 6 4 1 3-5-2-8-5z" fill="#9F947F"/>
<path transform="translate(328,542)" d="m0 0 5 2 5 4v2l-5-1-5-5z" fill="#F5F4EC"/>
<path transform="translate(474,345)" d="m0 0 2 1-3 5-6 4h-2v-3l3-1 5-5z" fill="#F1F0EA"/>
<path transform="translate(399,335)" d="m0 0h10l-1 2-5 1h-9l1-2z" fill="#131318"/>
<path transform="translate(311,856)" d="m0 0 4 2 7 7 4 3v2l-4-2-11-11z" fill="#FBFAF4"/>
<path transform="translate(1621,691)" d="m0 0 14 6v1l-7-1-9-4z" fill="#1D1C1E"/>
<path transform="translate(412,536)" d="m0 0 7 1 3 4-1 3-9-6z" fill="#FAFAF1"/>
<path transform="translate(403,508)" d="m0 0h2v11h-5l-1-3 4 1z" fill="#16151B"/>
<path transform="translate(350,491)" d="m0 0 2 3v2h6l3 3h-9l-3-3z" fill="#28282E"/>
<path transform="translate(296,427)" d="m0 0 7 1 6 2-1 3-12-4z" fill="#191A21"/>
<path transform="translate(208,423)" d="m0 0 3 1-2 3-10 1 2-3z" fill="#1E1D22"/>
<path transform="translate(516,96)" d="m0 0 5 1 2 1v8l-3-2-1-5-2-1-1 3-1-4z" fill="#27272E"/>
<path transform="translate(1930,978)" d="m0 0 4 1 2 4-3 2h-4l2-5z" fill="#B2AEA4"/>
<path transform="translate(1684,954)" d="m0 0 3 1-12 6-4-2z" fill="#716C5F"/>
<path transform="translate(1139,802)" d="m0 0 3 1 1 3v8h-2l-1-2z" fill="#4F4F52"/>
<path transform="translate(1540,716)" d="m0 0h2l-1 9-1 6-2-2 1-9z" fill="#4C4C51"/>
<path transform="translate(464,534)" d="m0 0h1l1 12h-2v6h-1l-1-14z" fill="#3F3D3E"/>
<path transform="translate(341,529)" d="m0 0 3 3 1 2v10l-3-4z" fill="#333234"/>
<path transform="translate(381,430)" d="m0 0 9 2 2 1-1 3-10-3z" fill="#2C2E36"/>
<path transform="translate(1635,976)" d="m0 0 3 1-4 3-8 4-3-1z" fill="#837C69"/>
<path transform="translate(1917,962)" d="m0 0 5 1 2 3v5l-2-3-3 2v-7z" fill="#AFA99C"/>
<path transform="translate(1661,750)" d="m0 0h1v13l-3 3 1-11z" fill="#1B1A1F"/>
<path transform="translate(1690,698)" d="m0 0 3 1-2 2v1l-8 1-4-3z" fill="#2D2D34"/>
<path transform="translate(1700,694)" d="m0 0 2 1-5 5-7 1 1-2h2v-2z" fill="#1B1A1F"/>
<path transform="translate(1552,688)" d="m0 0h2l-1 5-5 9-1-4z" fill="#1A1A1F"/>
<path transform="translate(351,356)" d="m0 0h3l2 9-3 1-2-6z" fill="#413F40"/>
<path transform="translate(558,305)" d="m0 0h9l4 2v1h-8l-5-1z" fill="#14131A"/>
<path transform="translate(495,289)" d="m0 0m-2 1 2 1-3 5-3 4h-2l1-5z" fill="#18181F"/>
<path transform="translate(515,158)" d="m0 0 2 1-7 9-5 4 2-4z" fill="#414249"/>
<path transform="translate(1903,963)" d="m0 0h1l1 10 2-1v4h-4l-2-3v-5h1z" fill="#2D2E38"/>
<path transform="translate(1822,957)" d="m0 0 4 1 1 4-3 1v8h-1v-12z" fill="#45464A"/>
<path transform="translate(1577,826)" d="m0 0 2 2 1 9-3 1-1-9z" fill="#3C3B3B"/>
<path transform="translate(1630,758)" d="m0 0 3 1-8 5-4 2v-3z" fill="#313032"/>
<path transform="translate(1617,688)" d="m0 0 7 2 9 5-3 1-13-7z" fill="#373842"/>
<path transform="translate(875,654)" d="m0 0 1 4-3 7-2 1 2-10z" fill="#1A1A1E"/>
<path transform="translate(874,600)" d="m0 0 4 2 4 6-1 4-5-8-3-3z" fill="#1F1F27"/>
<path transform="translate(151,507)" d="m0 0 2 1-10 4-7-2v-1l12-1z" fill="#353641"/>
<path transform="translate(323,481)" d="m0 0 2 3v6h-5v-3h2z" fill="#444241"/>
<path transform="translate(154,475)" d="m0 0 4 4 1 7-1 3-2-2v-6l-2-3z" fill="#89816C"/>
<path transform="translate(375,475)" d="m0 0h8v2l-7 2-4-1-1-2z" fill="#403E3D"/>
<path transform="translate(456,127)" d="m0 0h11l1 2-14 1z" fill="#131319"/>
<path transform="translate(1681,841)" d="m0 0 1 2-5 10h-3z" fill="#2C2C32"/>
<path transform="translate(1128,799)" d="m0 0 4 1h-2v10l-5-1 2-2z" fill="#43454E"/>
<path transform="translate(1366,790)" d="m0 0h3v6h-2v9h-1z" fill="#303037"/>
<path transform="translate(800,683)" d="m0 0 4 2-1 5-1 2h-2z" fill="#3E3E46"/>
<path transform="translate(462,645)" d="m0 0 2 1v7l-1 5h-1l-1-12z" fill="#DCD9D0"/>
<path transform="translate(351,211)" d="m0 0 15 5v2l-5-1-10-5z" fill="#333440"/>
<path transform="translate(358,202)" d="m0 0 3 1-2 2 2 2-9-1-2-2z" fill="#A8AB95"/>
<path transform="translate(600,30)" d="m0 0h1l2 12h-2l-1 2-1-10z" fill="#28272C"/>
<path transform="translate(1626,988)" d="m0 0 4 1-12 7-2-1z" fill="#787263"/>
<path transform="translate(1681,907)" d="m0 0h2l-2 4-6 5-1-3z" fill="#1C1C22"/>
<path transform="translate(1098,837)" d="m0 0h2l1 4v7h-2l-1-3z" fill="#16151A"/>
<path transform="translate(1538,760)" d="m0 0 2 1 1 11h-2l-1-2z" fill="#29282C"/>
<path transform="translate(1593,665)" d="m0 0 4 2 10 7-3 2-11-10z" fill="#666159"/>
<path transform="translate(1022,554)" d="m0 0h1v6l-3 3h-8l3-2 7-2z" fill="#161519"/>
<path transform="translate(1018,550)" d="m0 0 5 1 1 2v6h-3l-1-6-3-2z" fill="#353335"/>
<path transform="translate(140,477)" d="m0 0 8 8v2l3 1-4 1-6-8z" fill="#151419"/>
<path transform="translate(420,451)" d="m0 0 4 2 6 7-4-1-6-6z" fill="#90897B"/>
<path transform="translate(417,379)" d="m0 0 4 2-5 4-5 2-1-3 7-2z" fill="#383739"/>
</svg>
