<?xml version="1.0" encoding="UTF-8"?>
<svg version="1.1" viewBox="0 0 2048 2048" width="600" height="600" xmlns="http://www.w3.org/2000/svg">
<path transform="translate(1134,440)" d="m0 0 7 1 9 9 6 12 4 15 2 25v25l-3 19-8 27-6 7-11 4-8 1 6 8 1 3 4 2 7 6-1 3-16 1 7 5 10 13 12 15 11 16 8 13 7 19 1 3 5-1 24-8 26-6 24-4v3l-7 3-40 11-25 9h-3l11 19h61l26 1 5 2v2l-2 1-35 2h-52l5 15 27 2 26 5 21 6 8 4v3l-28-5-29-4-22-2 2 6 5 5 9 10 7 8 7 7 6 5 9 12 21 35 16 25 10 17 9 19 8 26 9 41 5 32 2 19 1 25-2 15-7 25-10 28-8 17-9 28-6 8-4 5-5 4v13l-2 12-3 6-4 3-1-27-1 22-2 10-2 3h-2l-1-8-2-11-5 15h-6l-3 17-4 17-6 15-7 10-15 31-12 18-13 15-9 8-11 7-13 5-4 1h-20l-31-7-13-4-10-5-5-3-20 1-27 2 1 2v7l-7 16-2 3 1 8 5 17 10 25 9 30 3 8v6l-7 16-9 26-5 8-8 4-23 7-9 1-11-2-11-6-11-11-7-10-12-22-8-21-6-23-3-19v-9l4-20 6-18 7-11 9-10 2-3-11 1h-23l-14 1-8 4-22 6-23 5h-19l-15-5-10-6-10-9-16-16-18-10-12-8-11-9-12-12-10-14-6-13-4-18-2-15v-14l-4-2-6-12-1-9 1-10h-2l-1 12-3 17-3-1-3-7v-15l5-10-6-2-5-4-8-14-8-20-16-50-1-4v-34l4-31 2-27 3-17 11-24 2-4-2-8 9-24 8-16 9-14 5-6 1-6 1-8 5-10 11-12 12-11 8-7 3-4 3-7 9-10 4-5 11-9 7-7 3-6-60 6-35 5-11 1 2-4 19-5 35-5 46-4 9-1 2-6v-19l-9-2-45-5-63-5-3-1-1-3 1-1h19l45 2 29 2 27 3h5l10-15 1-3-13-2-34-7-29-4-28-3-7-2v-2h14l46 3 25 3 32 5h2l2-4 10-14 2-4h-6l2-4 17-17 6-4h2l-5-5 2-4 7-6 10-6 18-6h2l-1-6-11-1-1-4 8-8v-3l-10-3-3-2 1-4 1-2v-6l-7-16-2-10v-26l3-32 3-14 5-12 12-23 5-6 9-4h10l10 6 8 8 4 8 10 34 5 22 2 10v21l-3 11-3 5h6l1 3-4 6-4 4h8l1 3-4 9-1 2 15-6 24-6 19-3 10-1h16l35 4 28 4 9 3-6-8 1-4 5-5-7-8 1-7 8-32 15-39 10-19 9-13 9-10z" fill="#E0DA9F"/>
<path transform="translate(1134,440)" d="m0 0 7 1 9 9 6 12 4 15 2 25v25l-3 19-8 27-6 7-11 4-8 1 6 8 1 3 4 2 7 6-1 3-16 1 7 5 10 13 12 15 11 16 8 13 7 19 1 3 5-1 24-8 26-6 24-4v3l-7 3-40 11-25 9h-3l11 19h61l26 1 5 2v2l-2 1-35 2h-52l5 15 27 2 26 5 21 6 8 4v3l-28-5-29-4-22-2 2 6 5 5 9 10 7 8 7 7 6 5 9 12 21 35 16 25 10 17 9 19 8 26 9 41 5 32 2 19 1 25-2 15-7 25-10 28-8 17-9 28-6 8-4 5-5 4v13l-2 12-3 6-4 3-1-27-1 22-2 10-2 3h-2l-1-8-2-11-1 2h-2l-1-13 4-59 2-56v-38l-3-25-7-38-3-11-6-12-7-9-5-5-7-6-6-5-8-15-5-6-16-10-12-8-13-11-11-10-17-12-12-5-9-2-14-1-10-3-14-6-33-8-9 1-16 5h-16l-4-1h-19l-30 2-32 4-37 8-30 10-9 5-8 5-19 10-19 13-10 8-12 11-8 8-7 8-6 9-5 5-10 15-12 25-9 24-7 27-3 19-3 40-2 50-2 25v51l2 18 4 23 1 6-2-2-4-16-3-20v-14l-4-2-6-12-1-9 1-10h-2l-1 12-3 17-3-1-3-7v-15l5-10-6-2-5-4-8-14-8-20-16-50-1-4v-34l4-31 2-27 3-17 11-24 2-4-2-8 9-24 8-16 9-14 5-6 1-6 1-8 5-10 11-12 12-11 8-7 3-4 3-7 9-10 4-5 11-9 7-7 3-6-60 6-35 5-11 1 2-4 19-5 35-5 46-4 9-1 2-6v-19l-9-2-45-5-63-5-3-1-1-3 1-1h19l45 2 29 2 27 3h5l10-15 1-3-13-2-34-7-29-4-28-3-7-2v-2h14l46 3 25 3 32 5h2l2-4 10-14 2-4h-6l2-4 17-17 6-4h2l-5-5 2-4 7-6 10-6 18-6h2l-1-6-11-1-1-4 8-8v-3l-10-3-3-2 1-4 1-2v-6l-7-16-2-10v-26l3-32 3-14 5-12 12-23 5-6 9-4h10l10 6 8 8 4 8 10 34 5 22 2 10v21l-3 11-3 5h6l1 3-4 6-4 4h8l1 3-4 9-1 2 15-6 24-6 19-3 10-1h16l35 4 28 4 9 3-6-8 1-4 5-5-7-8 1-7 8-32 15-39 10-19 9-13 9-10z" fill="#706F60"/>
<path transform="translate(802,1164)" d="m0 0h18l16 4 12 5 17 9 11 8 5 6 1 5 8 7 13 13 9 13 7 14 4 15 2 14v8l8 1 7 3h22l7-2 1-10h25l1 1 1 8h20l5-3h7l1 4-2 3 3-1 3-5 10 1 15 1 1-16 4-18 5-13 7-11 9-11 10-10 8-7 2-3h-2v-2h2l2-4 11-8 18-10 14-6 14-3h18l9 2 12 6 11 9 8 8 6 10 6 15 5 19v9l-4 18-2 7-2 6-13 27-12 18-13 15-9 8-11 7-13 5-4 1h-20l-31-7-13-4-10-5-5-3-20 1-27 2 1 2v7l-7 16-2 3 1 8 5 17 10 25 9 30 3 8v6l-7 16-9 26-5 8-8 4-23 7-9 1-11-2-11-6-11-11-7-10-12-22-8-21-6-23-3-19v-9l4-20 6-18 7-11 9-10 2-3-11 1h-23l-14 1-8 4-22 6-23 5h-19l-15-5-10-6-10-9-16-16-14-8 2-1 10 5-9-14-8-16-7-19-4-15-1-6v-15l3-12 8-20 7-10 10-10 9-6h2v-2l12-4z" fill="#48453B"/>
<path transform="translate(1134,440)" d="m0 0 7 1 9 9 6 12 4 15 2 25v25l-3 19-8 27-6 7-11 4-8 1 6 8 1 3 4 2 7 6-1 3-16 1 7 5 10 13 12 15 11 16 8 13 7 19 1 3 5-1 9-2 3 3-8 3-1 2h-11l-26 13v-3l24-13h2l-6-17-7-14-10-15-10-13-11-14-4-5-14-7v-4l20-2-8-7-6-9 1-4 8-3 10-3 4-4 8-27 3-18v-28l-3-27-5-16-7-11-3-3-7 1-5 5-8 10-9 15-11 23-6 18-5 14-5 21-3 11v6l5 2 3 3v4l-2 1h-6l3 6 5 6-1 3-9-1-23-4-40-5h-25l-25 4-21 6-3 3h-7l-8 3h-2l1-7 3-8-6-1-1-5 6-5 1-2-5-1-1-5 4-12v-22l-5-24-7-25-7-22-2-5-4-2-9-6-9-1-2 4-4 10 5 2-2 5-4 8-1 3v8l4 11-1 5-8 16-3 8-1 7 8-2 6-4h2l-1 5-8 15-3 8 10 4 4 2 1 2 1 21-3 12-7 12-3 4 15-2h5v8l-14 14-11 9-8 8-5 8-11 35-2 12-1 22v2l3 1-1 7-12 38-1 4v10l4 5 11 4 16 4-5 5-11 9-10 9-9 13-6 17-6 9-9 11-4 5 21-13 15-8 6-3 3-3 15-6 26-8 33-7 42-6 22-1h17l8 2h11l14-5 10-2 38 9 9 4 13 5 18 2 11 3 11 6 11 8 12 11 7 5v2l4 2 18 12 11 7 1 3 4 2 8 10 6 10 10 9 6 5 10 14 3 5-1-12-4-18-4-13-3-14-1-9v-11l3-1 1 19 5 21 6 23 2 13v11l8 47 3 29v26l-3 48-4 69 11-6 10-7 3-3h2l2-4 4-7 10-30 9-21 11-33 4-18 1-9-1-24-3-28-6-33-6-28-6-21-6-16-8-16-12-20-11-17-10-16-13-22-10-12-11-9-11-13-5-5-6-7-2-4-26-1-5-1v-1l45-1h3l-3-2-8-1v-1h23l26 5 21 6 8 4v3l-28-5-29-4-22-2 2 6 5 5 9 10 7 8 7 7 6 5 9 12 21 35 16 25 10 17 9 19 8 26 9 41 5 32 2 19 1 25-2 15-7 25-10 28-8 17-9 28-6 8-4 5-5 4v13l-2 12-3 6-4 3-1-27-1 22-2 10-2 3h-2l-1-8-2-11-1 2h-2l-1-13 4-59 2-56v-38l-3-25-7-38-3-11-6-12-7-9-5-5-7-6-6-5-8-15-5-6-16-10-12-8-13-11-11-10-17-12-12-5-9-2-14-1-10-3-14-6-33-8-9 1-16 5h-16l-4-1h-19l-30 2-32 4-37 8-30 10-9 5-8 5-19 10-19 13-10 8-12 11-8 8-7 8-6 9-5 5-10 15-12 25-9 24-7 27-3 19-3 40-2 50-2 25v51l2 18 4 23 1 6-2-2-4-16-3-20v-14l-4-2-6-12-1-9 1-10h-2l-1 12-3 17-3-1-3-7v-15l5-10-6-2-5-4-8-14-8-20-16-50-1-4v-34l4-31 2-27 3-17 11-24 2-4-2-8 9-24 8-16 9-14 5-6 1-6 1-8 5-10 11-12 12-11 8-7 3-4 3-7 9-10 4-5 11-9 7-7 3-6-60 6-35 5-11 1 2-4 19-5 35-5 46-4 9-1 2-6v-19l-9-2-45-5-63-5-3-1-1-3 1-1h19l45 2 29 2 27 3h5l10-15 1-3-13-2-34-7-29-4-28-3-7-2v-2h14l46 3 25 3 32 5h2l2-4 10-14 2-4h-6l2-4 17-17 6-4h2l-5-5 2-4 7-6 10-6 18-6h2l-1-6-11-1-1-4 8-8v-3l-10-3-3-2 1-4 1-2v-6l-7-16-2-10v-26l3-32 3-14 5-12 12-23 5-6 9-4h10l10 6 8 8 4 8 10 34 5 22 2 10v21l-3 11-3 5h6l1 3-4 6-4 4h8l1 3-4 9-1 2 15-6 24-6 19-3 10-1h16l35 4 28 4 9 3-6-8 1-4 5-5-7-8 1-7 8-32 15-39 10-19 9-13 9-10z" fill="#48453B"/>
<path transform="translate(813,1167)" d="m0 0h8l17 5 21 10 12 8 7 7 3 7 6 5v2l4 2 13 14 7 11 5 12 3 11 2 20v25l-3 11-7 9-1 3 7-7 4-8 2-14 1-23h1v8l8 1 7 3h22l7-2 1-10h25l1 1 1 8h20l5-3h7l1 4-2 3 3-1 3-5 10 1 15 1 1-16h1l1 32 2 12 7 13 2 6-37 3h-132l-1-3-4 4-7 2-6 2-3-1 18-12 8-9 2-6v-24l-3-7-4-6-6-5-12-6-11-3 1 4 9 1 14 7 6 7 3 7 1 6v9l-2 12-4 6-8 7-14 7-11 3-30 5-11 1-6-4-5-8-3-16v-13l1-9 3-3 3-6 11-9 5-1-3-3-1-2-1 4-9 6-3 3h-2v6l-4 2-2-4 1 4-4 1-9-7-13-13-7-8-1-5 10-20 1-7-3-6v-8l6-16 8-16z" fill="#6F6E5F"/>
<path transform="translate(1166,1167)" d="m0 0h16l12 4 11 6 13 12 2 6 1 30v16l-2 13-5 12-7 11-8 10-6 5h-8l-8-5-1-5 3-6v-7h-1v8l-4 6-8 7 5 5 5 10 1 4v14l-5 8-10 6-9 2h-38l-11-3-9-6-5-8-3-11v-19l4-8 3-4 7-21 6-11 2-1v9l4-13 8-10 6-7v-2l-9-4-5-10-2-8v-10l11-8 18-10 15-5z" fill="#706F60"/>
<path transform="translate(755,929)" d="m0 0 2 2 1 11 3 5-1 4-16 17-7 10-5 12-2 7 8-2 9-6 1 2-8 16-3 9v4l8-1 7-4 2 1-6 16-4 12v2l10 2-1 9-11 36-1 7v8l3 14 4 1 18-6-4 24v12l3 3 10 3 9 8 1 4-11 7-11 11-7 12-7 19-2 9v15l4 18 7 20 8 16 7 12 2 4-6-2-10-4-12-8-11-9-12-12-10-14-3-6-5-23-2-13-1-13v-51l2-25 3-67 3-30 4-20 7-25 8-20 12-25 12-17z" fill="#A6A15C"/>
<path transform="translate(969,1337)" d="m0 0h45l12 1 3 4-2 9-8 16 1 6 5 16 11 28 8 28 3 8v8l-5 11-3 8h-1l1-10-3 3-9 13-11 11-11 6h-10l-7-6-6-12-8-20-14-14-13-19-1-7 6-15 2-6-1-8-1-2v-9l5-17 8-22z" fill="#706F60"/>
<path transform="translate(1060,1270)" d="m0 0h1l1 32 2 12 7 13 2 6-37 3h-131l1-4 8-7 4-5 3-6 2-14 1-23h1v8l8 1 7 3h22l7-2 1-10h25l1 1 1 8h20l5-3h7l1 4-2 3 3-1 3-5 10 1 15 1z" fill="#A6A15D"/>
<path transform="translate(1265,1088)" d="m0 0h1v15l-3 55-2 26 1 18-3 8h-6l-3 17-4 17-6 15-6 8h-2l3-10 3-15v-9l-5-19-6-15-6-10-13-13v-5l5-3 6-3 5-4 9-13 7-15 3-6h2v11l5-5 6-10 7-14z" fill="#A49F5C"/>
<path transform="translate(993,738)" d="m0 0h47l5 1 2 22v40l-7 2-17 1-29-3-2-1v-58z" fill="#FDFDFC"/>
<path transform="translate(980,738)" d="m0 0h11v62l-18-1-39-5-4-1v-21l2-23 3-6 13-2z" fill="#FDFCFA"/>
<path transform="translate(1047,739)" d="m0 0 37 5 3 1 2 8 4 11 2 11v6l1-1-3-18-5-13v-4l34 4 3 13-1-13 25 2 1 2-19 11-18 11-12 7-16 7-29 10-7 2-1-33-2-28z" fill="#FDFCFB"/>
<path transform="translate(929,743)" d="m0 0h5l-3 8-2 32v9l-10-1-20-6-12-5-17-9-9-7-14-14v-2l19-2 21-1-3 32h2v-21l2-9 1-1 9-1z" fill="#FCFCF9"/>
<path transform="translate(1110,659)" d="m0 0h12l10 6 6 8 3 8 1 11-3 10-9 10-6 3h-14l-9-3-6-5-4-7-2-10 1-10 5-10 8-8z" fill="#FCFCF9"/>
<path transform="translate(857,877)" d="m0 0h15l9 4 9 7 9 9 2 3v5l-3 1h-30l-14 2-14 5-12 8-17 13-2 1h-6l-4-5 12-16h2l2-4 9-11 12-11 13-8z" fill="#6F6E5D"/>
<path transform="translate(893,662)" d="m0 0h9l10 2 6 4 4 5 2 6v8l-3 8-7 8-5 4-13 4-13 1-8-4-6-8-2-4-1-9 3-11 7-8 8-4z" fill="#FCFCF9"/>
<path transform="translate(997,734)" d="m0 0h18l32 1 27 4 14 2 30 4 29 3 4 2v1h-12l-12-1-3-1 2 16-2-2-2-10v-4l-17-1-15-2-2-1 7 21 2 15h-2l-4-20-4-10v-6l-40-5 2 28 1 32 30-10 13-5 19-10 14-9 21-12 3-1-2 4-21 12-11 7-13 8-18 8-32 11-17 3h-20l-29-2-11-2-14-1-9-2-14-2-16-2-19-6-11-4-13-6-11-6-13-10-10-10v-2l-3-1v-3l10-3 9-1 26-1h14l36-3 29-3zm-4 4-1 4v58l2 1 29 3 17-1 7-2v-40l-2-22-5-1zm-13 0-41 4-4 1-3 6-2 23v21l20 3 34 4h7v-62zm-51 5-31 2-9 1-2 3-1 7v21h-2l2-24 1-8-31 2-9 1 2 4 15 15 15 9 15 7 21 7 8 2h6l1-26 1-15 3-8z" fill="#565448"/>
<path transform="translate(1134,440)" d="m0 0 7 1 9 9 6 12 4 15 2 25v25l-3 19-8 27-6 7-11 4-8 1 6 8 1 3 4 2 7 6-1 3-16 1 7 5 10 13 12 15 11 16 8 13 7 19 1 3 5-1 9-2 3 3-8 3-1 2h-11l-26 13v-3l24-13h2l-6-17-7-14-10-15-10-13-11-14-4-5-14-7v-4l20-2-8-7-6-9 1-4 8-3 10-3 4-4 8-27 3-18v-28l-3-27-5-16-7-11-3-3-7 1-5 5-8 10-9 15-11 23-6 18-5 14-5 21-3 11v6l5 2 3 3v4l-2 1h-6l3 6 5 6-1 3-9-1-23-4-40-5h-25l-25 4-21 6-3 3h-7l-8 3h-2l1-7 3-8-6-1-1-5 6-5 1-2-5-1-1-4 2-1v3h6l1 3-4 6-4 4h8l1 3-4 9-1 2 15-6 24-6 19-3 10-1h16l35 4 28 4 9 3-6-8 1-4 5-5-7-8 1-7 8-32 15-39 10-19 9-13 9-10z" fill="#4B483D"/>
<path transform="translate(1210,743)" d="m0 0h23l26 5 21 6 8 4v3l-28-5-29-4-22-2 2 6 5 5 9 10 7 8 7 7 6 5 9 12 21 35 16 25 10 17 9 19 8 26 9 41 5 32 2 19 1 25-2 15-7 25-10 28-8 17-9 28-6 8-4 5-5 4v13l-2 12-3 6-4 3v-27l3-6 8-7 4-2 2-4 4-7 10-30 9-21 11-33 4-18 1-9-1-24-3-28-6-33-6-28-6-21-6-16-8-16-12-20-11-17-10-16-13-22-10-12-11-9-11-13-5-5-6-7-2-4-26-1-5-1v-1l45-1h3l-3-2-8-1z" fill="#4B483D"/>
<path transform="translate(989,858)" d="m0 0 12 2 12 5 9 5 6 4 5 5 6 7 2 4v4l-2 1h-8l-25-8-14-1-15 4-19 7-8 1-3-3 1-5 14-15 14-11 9-5z" fill="#6F6E5E"/>
<path transform="translate(1048,922)" d="m0 0 8 1 14 7 14 9 10 8 2 4-1 1h-14l-17-3h-15l-25 9-6 1h-14l-2-2 1-6 10-10 11-8 16-8z" fill="#6F6E5E"/>
<path transform="translate(1261,673)" d="m0 0 2 2-4 3-37 10-27 9-5 2h-3l11 19h61l26 1 5 2v2l-2 1-35 2h-52l5 15v2l-6 1h-32v-2l4-1h30l-4-12h-34l-1-2 30-2 2-3-31 3h-6v-2l10-2 8-1h18l-3-8-5-8-7 1-21 8-4-1v-3l26-13h7l4 1 2-4 5-2-1-3 15-5 26-6z" fill="#6E6D5E"/>
<path transform="translate(928,934)" d="m0 0h8l17 5 11 8 8 8-1 4-3 3h-17l-17-2h-10l-10 3-18 8-7 2-4-4 2-4 10-11h2v-2l18-12 8-5z" fill="#6E6C5D"/>
<path transform="translate(808,954)" d="m0 0 12 2 17 8 9 7 3 4-1 4-4 3-3 1h-24l-7 2-4 4-6-1-8 8-11 7-5-2-2-1 2-4 9-15 10-16 9-10z" fill="#706F5E"/>
<path transform="translate(1129,867)" d="m0 0 8 1 12 8 8 6v2l4 2 14 14 1 4-2 3-7-1-25-11-3-1h-9l-25 6-7-1-2-2 1-4 6-8 10-9 11-7z" fill="#706E5E"/>
<path transform="translate(1169,946)" d="m0 0h10l16 8v2l4 2 7 8 3 6 3 7v7l-2 2-6-1-13-9v-2l-5-2-9-6-6-2-13 1-9 2h-12l-1-5 9-8 17-8z" fill="#6E6D5E"/>
<path transform="translate(1088,745)" d="m0 0 34 4 3 13-1-13 25 2 1 2-19 11-18 11-12 7-5 1v-3l-3-18-5-13z" fill="#FCFBF8"/>
<path transform="translate(1148,753)" d="m0 0h2l-2 4-21 12-11 7-13 8-18 8-32 11-17 3h-20l-29-2-11-2-14-1-9-2-14-2-16-2-19-6-11-4-4-2v-2l5 1 21 7 11 3 47 6 50 5 17-1 16-4 29-10 9-4 16-8 16-10 21-12z" fill="#4E4B41"/>
<path transform="translate(999,683)" d="m0 0h19l12 3 6 5v2l-11 4-11 5-7-1-13-5-10-3v-4l10-5z" fill="#48453B"/>
<path transform="translate(1165,1256)" d="m0 0h2l4 10 2 3-11 14-6 9-1 4-3-1 5-10-2-2-14-5-4 1 2-6 4-8 12-3z" fill="#48453B"/>
<path transform="translate(1110,670)" d="m0 0h6l7 6 3 6-1 7-5 6-6 3-6-1-6-4-3-5v-8l7-8z" fill="#4A473C"/>
<path transform="translate(894,673)" d="m0 0h9l5 3 4 6v7l-6 7-8 3-7-1-5-5-2-6 1-7 7-6z" fill="#4A473C"/>
<path transform="translate(1261,673)" d="m0 0 2 2-4 3-37 10-27 9-20 7-15 6-5 1-1-2 26-13h7l4 1 2-4 5-2-1-3 15-5 26-6z" fill="#6C6B5C"/>
<path transform="translate(1110,656)" d="m0 0h12l9 5 8 8 4 8 1 4v15l-4 9-11 11-6 2h-12l-9-3-8-6-4-5-4-10v-8l3-10 4-8 5-6zm0 3-8 4-7 7-5 10-1 10 3 12 6 8 7 4 5 1h14l6-3 7-7 4-8 1-11-3-11-6-9-9-6-2-1z" fill="#4E4B40"/>
<path transform="translate(888,660)" d="m0 0h21l8 4 6 5 4 8v12l-5 8-8 9-7 4-12 4h-13l-7-4-5-4-5-8-1-4v-11l6-12 7-7zm5 2-12 3-6 4-6 7-3 11 1 9 6 10 7 5 3 1 13-1 13-4 8-7 5-6 2-7v-8l-3-8-7-6-5-2-7-1z" fill="#504D42"/>
<path transform="translate(1195,723)" d="m0 0h22l1 1 19 1v1h-36l5 15v2l-6 1h-32v-2l4-1h30l-4-12h-34l-1-2 30-2z" fill="#48453B"/>
<path transform="translate(1023,1360)" d="m0 0 1 3-2 3 1 8 5 17 10 25 9 30 3 8v6l-7 16h-2l1-6 4-9v-8l-6-18-6-21-12-30-4-13 1-6z" fill="#4B483E"/>
<path transform="translate(1133,1264)" d="m0 0 1 2-4 6v16l-3-2-1-9-24 1 4-10 12-2z" fill="#48453B"/>
<path transform="translate(1247,746)" d="m0 0 12 2 21 6 8 4v3l-28-5-21-3 1-2 2-1v-3z" fill="#626053"/>
<path transform="translate(705,767)" d="m0 0h5v2l5-1 3 4-37 5-11 2h-6l2-4 19-5z" fill="#676657"/>
<path transform="translate(1124,749)" d="m0 0 25 2 1 2-19 11-5 1-2-11z" fill="#FBFAF5"/>
<path transform="translate(1183,700)" d="m0 0 5 1 10 17-1 3-9 2-24 2h-6v-2l10-2 8-1h18l-3-8-5-8-7 1-21 8-4-1 1-2 13-4z" fill="#48453B"/>
<path transform="translate(1267,1180)" d="m0 0 5 1 1 11v9l-2 10-2 3h-2l-1-8-3-16 1-7z" fill="#716F60"/>
<path transform="translate(685,1168)" d="m0 0h5v3l2 1h-2l-1 12-3 17-3-1-3-7v-15z" fill="#6F6E5F"/>
<path transform="translate(694,1172)" d="m0 0 5 1 1 8h2v21l-3 2-4-6-3-9 1-15z" fill="#717060"/>
<path transform="translate(888,660)" d="m0 0h21l8 4 6 5 4 8v12l-5 8h-2l3-10v-8l-3-8-6-5-5-2-7-1h-9l-12 3-6 3 2-4 4-3z" fill="#4E4B40"/>
<path transform="translate(1241,719)" d="m0 0h44l5 2v2l-2 1-15 1h-26l3-2h6v-2l-15-1z" fill="#4F4C41"/>
<path transform="translate(1280,1172)" d="m0 0h2l1 21-4 10-4 3v-27l3-6z" fill="#6E6D5E"/>
<path transform="translate(1210,743)" d="m0 0h23l12 2 2 2h-5l1 5h-12l-11-1 1-4-3-2-8-1z" fill="#535145"/>
<path transform="translate(1091,674)" d="m0 0 1 3-2 8 1 11 3 8 5 6 6 3 5 1h17l-4 4h-12l-9-3-8-6-4-5-4-10v-8l3-10z" fill="#4E4C41"/>
<path transform="translate(867,1243)" d="m0 0h1l-1 25-2-2v-3l-18 5-2 2-5-15-2-7 3 3 4 10v3l19-5h2v-12z" fill="#48453B"/>
<path transform="translate(790,700)" d="m0 0 9 1 25 8 5 2-4 1-24-5-9-1-3-5z" fill="#706F60"/>
<path transform="translate(1148,753)" d="m0 0h2l-2 4-21 12-11 7-13 8-3-1 3-3 22-13 8-5z" fill="#4E4B40"/>
<path transform="translate(1180,696)" d="m0 0h7l3 1v2l-15 5-15 6-5 1-1-2z" fill="#6F6E5F"/>
<path transform="translate(702,1183)" d="m0 0h1l1 27 2 18 4 23 1 6-2-2-4-16-3-20v-14h-2l1-3v-18z" fill="#4E4B40"/>
<path transform="translate(776,728)" d="m0 0 19 4 16 4 1 2h-7l-31-6-2-3z" fill="#706F60"/>
<path transform="translate(705,767)" d="m0 0h5v2l5-1 3 4-31 4h-6l4-2 16-3-7-1 4-2z" fill="#535045"/>
<path transform="translate(682,687)" d="m0 0h14l18 1 1 2 13 2v1l-15-1-10-1h-14l-7-2z" fill="#626053"/>
<path transform="translate(1203,965)" d="m0 0 3 1 3 6 3 7v7l-2 2-6-1-13-9v-2h-2v-2l4 2 10 7 5 2 1-1v-6l-6-10z" fill="#585647"/>
<path transform="translate(657,718)" d="m0 0h19l3 2 11 1 9 1v1h-19l-22-1-2-3z" fill="#717060"/>
<path transform="translate(1007,674)" d="m0 0h9l14 3 9 5 1 4-15-7-18-3z" fill="#48453B"/>
<path transform="translate(996,675)" d="m0 0h8v1l-12 3-16 7-5 2 2-4 12-6z" fill="#48453B"/>
<path transform="translate(889,781)" d="m0 0 5 1 21 7 4 2-3 2-19-6-8-4z" fill="#4F4C41"/>
<path transform="translate(1101,713)" d="m0 0 9 1h17l-4 4h-12l-9-3z" fill="#504D42"/>
<path transform="translate(938,936)" d="m0 0 9 1 9 4 9 7 6 6-1 2-6-5-5-5-14-7-7-2z" fill="#595746"/>
<path transform="translate(1063,928)" d="m0 0 5 1 16 10 10 8-1 2-15-11-15-9z" fill="#535044"/>
<path transform="translate(908,946)" d="m0 0 3 1-11 8-8 8-5 6h-2l2-4 10-11h2v-2z" fill="#585647"/>
<path transform="translate(969,869)" d="m0 0 2 1-22 22 1-4 11-12z" fill="#535145"/>
<path transform="translate(1026,932)" d="m0 0 3 1-11 7-11 10-4 5 1-5 9-9 11-8z" fill="#585546"/>
<path transform="translate(1081,567)" d="m0 0 5 2 3 3v4l-2 1h-7l4-5-3-3z" fill="#49463C"/>
<path transform="translate(918,791)" d="m0 0 8 1 11 2 2 2-16-1-5-2z" fill="#4C493F"/>
<path transform="translate(704,688)" d="m0 0h10l1 2 13 2v1l-15-1-10-1z" fill="#706F60"/>
<path transform="translate(1148,1244)" d="m0 0h2l-2 13-2 2 1-11-4 5-4 6-1-2 6-9z" fill="#48453B"/>
<path transform="translate(919,697)" d="m0 0 2 1-7 8-7 4-5 1-1-2 10-4z" fill="#545246"/>
<path transform="translate(1247,746)" d="m0 0 3 1-1 4h-4v2h-6l1-2 2-1v-3z" fill="#706F60"/>
<path transform="translate(896,710)" d="m0 0h6v2l-7 2h-9l4-1v-2z" fill="#4E4C41"/>
<path transform="translate(1141,959)" d="m0 0 3 1-5 5-1 2h5v2h-6l-1-5z" fill="#595748"/>
<path transform="translate(1148,753)" d="m0 0h2l-2 4-9 5h-2l1-3z" fill="#514F43"/>
<path transform="translate(956,942)" d="m0 0 7 4 8 8-1 2-6-5-5-5-3-2z" fill="#555347"/>
<path transform="translate(822,902)" d="m0 0h2l-2 4-4 5-6 5 2-5z" fill="#555245"/>
<path transform="translate(1134,440)" d="m0 0 7 1v1l-10 3-4 2 5-6z" fill="#49463C"/>
<path transform="translate(1203,965)" d="m0 0 3 1 3 6 2 6h-2l-6-10z" fill="#5D5A47"/>
<path transform="translate(1121,769)" d="m0 0 2 1-4 4-6 4-2-1 5-5z" fill="#514E43"/>
<path transform="translate(1261,673)" d="m0 0 2 2-4 3-4-1-3-2z" fill="#656456"/>
<path transform="translate(877,664)" d="m0 0m-1 1m-1 1m-1 1 1 3-5 6-2 2-1-2 4-6z" fill="#524F44"/>
<path transform="translate(709,768)" d="m0 0h6l3 4h-7l-5-2z" fill="#706F60"/>
</svg>
