<?xml version="1.0" encoding="UTF-8"?>
<svg version="1.1" viewBox="0 0 2048 1384" width="756" height="511" xmlns="http://www.w3.org/2000/svg">
<path transform="translate(0)" d="m0 0h2048v1384h-2048z" fill="#FDFDFC"/>
<path transform="translate(543,268)" d="m0 0h50l25 4 16 6 22 10 11 8 4 2v2l5 2 12 11 9 11 7 10 6 10 2 5v6l-5-1-10-6-20-11-12-6-15-5-10-2h-34l-19 5-31 11-5 1 5 9 7 14 5 12 12 40 6 25 6 33 1 7v11l-3 11-9 10-5 2v2l-7 5 16 3 16 5 24 11 10 6 15 10 7 5v2l4 2 3 2v2l4 2 16 16 13 17 11 18 10 19 5 13 4 9 5 17 5 25 5 21 6 16 14 30 5 11 5 13 5 12 9 23 5 12 7 19 7 24 4 14 7 37 3 23 2 13v29l-1 11 9-2h35l23 3 16 4 18 6 19 9 9 6 5 3v2l4 2 3 2v2h2v2l4 2 10 13 7 14 4 12 1 8v20l-3 14-4 10-6 10h-2l-2 4-4 5-14 9-14 6-21 5-20 3-11 1h-28l-23-3-19-5-10-3-15-7-14-9-10-8-9-9v-2h-2l-8-13-2-9-9 6-10 5v20l-2 11-3 7h-2v2l-9 5-19 5-19 3-22 2h-22l-8 6-23 11-13 4-20 4-24 3-12 1h-44l-29-3-25-5-18-5-18-8-13-8v7l10 1-1 2h-9v16l-2 27-3 44-2 33h10l-1 4-9 1 1 28-4-2-1-2v-6h-2v-17l-11 1h-84l-20-1-6-1-29-2-28-4v25h-5l-1-11v-16l-10-3-6-3-1-4 4 2 7 3 6 1-1-17v-75l1-28-2 1h-8l1-3 10-2 2-14h3v14l20-2h59l16 2 33 2 43 4 16 1-1-11-10-8-5-5-9-4-16-2 4-3 4-1h11l9 2-7-3-13-3v-1h14l6 2 7 1v-3l-6-2-27-16-14-10-14-12-9-9-5-6v-2h-2l-5-7v-2h-2l-6-9v-2h-2l-11-18-8-16-6-15-6-22-4-25-1-10-1-31 2-27 4-24 2-9v-7l-5-12-2-11-1-15v-19l2-14 1-3v-9l-3-17v-30l2-11 2-16 5-29 13-58 7-29 4-11 7-25 9-36 5-17 6-24 5-27 2-17 2-40 1-38 3-15 5-8 6-5 25-15 21-11 15-6 11-5 27-9 23-7 6-2 38-7 21-4z" fill="#B3A79F"/>
<path transform="translate(543,268)" d="m0 0h50l25 4 16 6 22 10 11 8 4 2v2l5 2 12 11 9 11 7 10 6 10 2 5v6l-5-1-10-6-20-11-12-6-15-5-10-2h-34l-19 5-31 11-5 1 5 9 7 14 5 12 12 40 6 25 6 33 1 7v11l-3 11-9 10-5 2v2l-7 5 16 3 16 5 24 11 10 6 15 10 7 5v2l4 2 3 2v2l4 2 16 16 13 17 11 18 10 19 5 13 4 9 5 17 5 25 5 21 6 16 14 30 5 11 5 13 5 12 9 23 5 12 7 19 7 24 4 14 7 37 3 23 2 13v29l-1 11 9-2h35l23 3 16 4 18 6 19 9 9 6 5 3v2l4 2 3 2v2h2v2l4 2 10 13 7 14 4 12 1 8v20l-3 14-4 10-6 10h-2l-2 4-4 5-14 9-14 6-21 5-20 3-11 1h-28l-23-3-19-5-10-3-15-7-14-9-10-8-9-9v-2h-2l-8-13-2-9-9 6-10 5v20l-2 11-3 7h-2v2l-9 5-19 5-19 3-22 2h-22l-8 6-23 11-13 4-20 4-24 3-12 1h-44l-29-3-25-5-18-5-18-8-13-8v7l10 1-1 2h-9v16l-2 27-3 44-2 33h10l-1 4-9 1 1 28-4-2-1-2v-6h-2v-17l-11 1h-84l-20-1-6-1-29-2-28-4v25h-5l-1-11v-16l-10-3-6-3-1-4 4 2 7 3 6 1-1-17v-75l1-28-2 1h-8l1-3 10-2 2-14h3v14l20-2h59l16 2 33 2 43 4 16 1-1-11-10-8-5-5-9-4-16-2 4-3 4-1h11l9 2-7-3-13-3v-1h14l6 2 7 1v-3l-6-2-27-16-14-10-14-12-9-9-5-6v-2h-2l-5-7v-2h-2l-6-9v-2h-2l-11-18-8-16-6-15-6-22-4-25-1-10-1-31 2-27 4-24 2-9v-7l-5-12-2-11-1-15v-19l2-14 1-3v-9l-3-17v-30l2-11 2-16 5-29 13-58 7-29 4-11 7-25 9-36 5-17 6-24 5-27 2-17 2-40 1-38 3-15 5-8 6-5 25-15 21-11 15-6 11-5 27-9 23-7 6-2 38-7 21-4zm-151 304-18 18-11 14-10 15-9 16-8 17-7 17v4l13 5 4 4v8l-15 1-8 5-10 10-4 10v7l7 2 27 2 35 5 28 6 20 6 18 8 5 4 2 4-1 7-4 6-9 7-13 8-16 8-15 6-23 7-22 5-18 3-12 1h-28l-7 11-5 9-7 16-7 21-5 21-3 17-2 27v13l2 27 4 26 6 20 16 34 10 16 10 13 10 11 7 8h2v2l8 7 11 9 18 11 11 7 7 4 2-1v-20l4-17 7-16 7-11 9-11 10-9 14-8 8-3h3l-17 9-10 8-9 10-11 18-5 12-4 15-2 13v13l1 4-7 14 8 8 14 9 15 7 19 6 24 5 26 3h51l24-3 30-6 15-4 19-8 9-10 9-15v-2l-16 1h-20v-2l14-1 26-4 31-8 30-10 25-12 18-11 14-11 10-9 8-8 11-16 10-19 6-16 5-20 2-18v-16l-2-20-7-38-7-29-9-29-11-29-15-38-11-24-10-22-7-21-9-42-6-18-13-29-9-17-12-17-11-13-11-12-5-1-8 6-21 10-13 4-23 4-37 3h-35l-29-2-22-3-28-7-16-6-25-12-6-4z" fill="#060606"/>
<path transform="translate(1226,852)" d="m0 0 5 2 3 5 4 15 5 27 2 18v21l-3 4h-2l3 5 8 11 1 5 11-6 13-5 12-2h25l15 3 13 5 12 7 10 9 7 13 3 12v17l-4 17-6 12-6 8-7 7-15 8-14 4-7 1h-12l-15-2v27l-1 16 10 1 14 3 13 5 14 8v2l5 2 8 10 5 12v15l-3 8-4 5-11 5-8 2h-23l-12-3-11-6-8-8-2-5-1-8-7 9-4 3v14l-3 4-14 2h-32l-7 1h-24l-15-3-7-2-1 7-3 1h-16l-16-4-15-5-17-9-12-9-7-8-2-4v-7l4-4 10 1 6 2-5-6-7-16-3-15-1-11v-22l4-24 3-11 3-10 7-14 4-7-3-3v-6l4-2h4l8-16 10-16 8-10 9-10 11-10 13-8-3-6v-12l8-16 9-16 11-15 7-11 5-6 7-1 6 5 1 4 5-3 8-6z" fill="#82C1DB"/>
<path transform="translate(284,828)" d="m0 0 12 2 27 4 15 4 12 5 14 8 10 8 10 9 11 14 6 10 6 15 5 17 4 25 2 24v28l-3 25-6 27-6 21-10 13-8 15-5 15-2 10v21l-6-2-16-10-20-13-12-11-3-2v-2l-4-2-12-13-13-17-8-13-8-15-11-25-5-17-4-26-2-27v-13l2-27 6-31 7-23 10-24z" fill="#FEF8D9"/>
<path transform="translate(501,367)" d="m0 0 1 3-7 17-4 8-5 15-14 43-2 11v7l5 10 5 5 2 4 3 1v31l-25 5-18 6-28 14-17 12-13 11-16 16-9 11-9 13-9 15-7 15-5 13-5 11-3 8-13 3-3 3v30l-1 5v11l1 7-7 19-5-1h-8l-5 2-7-8v-2l-3-1-2-3v-8l5-30 7-30 9-35 7-24 6-20 9-29 14-46 9-35 5-25 3-25 1-21 4 1 11 4 8 2h19l22-4 13-4 26-11 29-15 24-14z" fill="#FCFBFA"/>
<path transform="translate(1226,852)" d="m0 0 5 2 3 5 4 15 5 27 2 18v21l-3 4h-2l3 5 8 11 1 5 11-6 13-5 12-2h25l15 3 13 5 12 7 10 9 7 13 3 12v17l-4 17-6 12-6 8-7 7-15 8-14 4-7 1h-12l-15-2v27l-1 16 10 1 14 3 13 5 14 8v2l5 2 8 10 5 12v15l-3 8-4 5-11 5-8 2h-23l-12-3-11-6-8-8-2-5-1-8-7 9-4 3v14l-3 4-14 2h-32l-7 1h-24l-15-3-7-2-1 7-3 1h-16l-16-4-15-5-17-9-12-9-7-8-2-4v-7l4-4 10 1 6 2-5-6-7-16-3-15-1-11v-22l4-24 3-11 3-10 7-14 4-7-3-3v-6l4-2h4l8-16 10-16 8-10 9-10 11-10 13-8-3-6v-12l8-16 9-16 11-15 7-11 5-6 7-1 6 5 1 4 5-3 8-6zm-2 9-8 7-9 12-12 19-8 16-4 10-1 5v8l9 12 4 11-4-1-4-9-8-10-1-3-8 1-10 4-13 9-13 13-10 13-10 15-9 16v4h2l-1 8-7-1-11 33-5 23-1 9v28l5 18 6 16 5 9 8 8 19 10 21 7 17 3 12 3 8 1h19l20-4 15-5 25-12 9-7 4-6v6l8 11 8 7 13 5 5 1h19l11-3 5-5 2-6v-7l-3-9-6-8-10-8-16-8-15-4-17-2-1-1v-55l-21-6-11-5h-3l-5 16-3 6-2-1 5-15 1-9-3-8-7-8-14-8-5-2-11 1-5 3-8 10-5 11-1 3v12l6 7 14 10 2 5-16-10-6-4-4-5-4 8-5 5-8 5-7 2-8-1-7-4-4-6-4-12-7-8-7-6v-6l4-4 25 1 18-2 16-6h7l1-2-16-5v-2l11 2 8 1 8-6 9-4 4-9 7-11 11-12 7-7 13-10v-2l-6-5-8-11-4-2h-5l-4 5v7h-4v-10l5-5 10-9 3-4 1-7v-11l-2-22-5-26-3-9z" fill="#060606"/>
<path transform="translate(534,273)" d="m0 0h53l25 3 20 6 15 8 15 10 14 11 17 16 10 13 5 8v2l-4-2-15-10-11-8-14-6-14-4-1-2h9l12 3 17 9-2-4-9-6-12-5-10-2-22-1-22 3-19 5-38 14-15 7-24 12-24 14-22 12-16 8-19 10-15 6-22 6-8 1h-22l-12-3-10-6-8-7-4-10v-19l3-10-5 5-2 7v19l4 11 6 7v19l-4 34-4 22-7 28-13 43-16 51-12 43-15 61-4 26-4-2-5-4 1-11 5-30 13-52 8-36 15-53 8-29 8-35 4-26 2-26 1-34 1-27 4-16 3-5 17-10 24-13 27-14 25-10 33-11 28-6 35-6z" fill="#72D465"/>
<path transform="translate(1689,1040)" d="m0 0h7l4 6 3 14 2 22 2 6 9 6 8 8h11l33-2h16l2 3v6l-2 4-5 4-21 10-13 3h-9l-2-1v14l-5 13-7 17-8 10-4 3h-2v2l-12 5-15 3-8 1-23 1h-75l-15-1-7-3-13-12v-2h-2l-5-8v-2l-20 1v-3l11-4h2v-2l-9-2-14-6v-3h10l-6-10-2-5h-2l-8-16-2-11v-23l3-13 4-5 7 1 8 4v2l4 2 7 9 9 15v3l7-1-4-24v-19l4-5 7 1 13 8v2l4 2 7 8 9 14v2l14 2 17 6 1-6 5-6 11-6 13-4 7-1h24v-8l3-13 7-12z" fill="#FCFBFA"/>
<path transform="translate(818,1020)" d="m0 0h36l26 3 21 5 17 6 16 8 14 9 10 9 8 9 8 14 4 10 2 10v19l-4 14-6 11-11 12-17 9-20 6-15 3-19 2h-27l-23-3-19-5-15-6-15-8-11-8-12-11-10-13-4-6 1-3 12-9 14-12 11-13 9-14 8-16 7-19 3-12z" fill="#B3A79F"/>
<path transform="translate(545,354)" d="m0 0 4 4 9 20 9 27 7 26 6 31 2 14v20l-4 8-10 9-10 7-2 2-2 15v23h5v-14l2-17 21 3 16 6 21 10 19 12 13 10 10 8-5 4-10 6-17 8-13 4-23 4-37 3h-35l-29-2-22-3-28-7-16-6-25-12-7-5 5-5 11-9 13-8 15-8 21-8 21-5 10-1h23v26l3-1 2-11 1-20-10-15-6-11v-18l4-20 7-23 14-41 8-20z" fill="#907F72"/>
<path transform="translate(193,1189)" d="m0 0h82l21 2 18 2 14 1 13 2 18 1 1 1v17l-15-1v2l10 1 3 1v29l-1 26 2-1 1-13 1-27 1-13 9 2-3-3-5-1v-20h16v16l-5 71-2 18-1 16-1 1h-92l-53-3-5-1-14-1-13-2-1-1-1-11v-86l1-24z" fill="#FBF9F7"/>
<path transform="translate(1288,961)" d="m0 0h23l16 3 13 5 9 5 7 7 5 10 3 13v10l-4 18-6 11-9 10-11 7-12 4-5 1h-36l-15-4-19-8-5-4-7-10-6-5v-2l26-15 24-12 11-5-8 2-20 8-21 11-14 10-4-1-14-7 5-10 9-12 10-11 8-7 12-9 12-7 12-4z" fill="#E1C8B1"/>
<path transform="translate(1689,1040)" d="m0 0h7l4 6 3 14 2 22 2 6 9 6 8 8h11l33-2h16l2 3v6l-2 4-5 4-21 10-13 3h-9l-2-1v14l-5 13-7 17-8 10-4 3h-2v2l-12 5-15 3-8 1-23 1h-75l-15-1-7-3-13-12v-2h-2l-5-8v-2l-20 1v-3l11-4h2v-2l-9-2-14-6v-3h10l-6-10-2-5h-2l-8-16-2-11v-23l3-13 4-5 7 1 8 4v2l4 2 7 9 9 15v3l7-1-4-24v-19l4-5 7 1 13 8v2l4 2 7 8 9 14v2l14 2 17 6 1-6 5-6 11-6 13-4 7-1h24v-8l3-13 7-12zm-144 21-2 3v23l2 12 7 14 7 7-7-3-8-10-7 1-13 5-3 2 4-5 6-3-1-4-2-4h-2l-2-5-7-10h-2l-2-4-9-6h-2l-3 12v19l3 14 5 13 7 11 9 12 19 9v2l-4 1 2 4 8 10 3 4h2l2 4 5 3 11 1h20l60-1 33-2 11-2 11-7 7-8 1-5h2l6-14 3-14v-22l-3-7-9-10-7-6-16-8-11-3-8-1h-20l-15 3-12 6-7 6 1 4 11 2-1 1h-9l-20-4-14-4-3-1v6h-2l-3-11-4-7-7-10-11-9-7-4z" fill="#080807"/>
<path transform="translate(793,1078)" d="m0 0 2 3 6 16 6 11 8 11 10 10 10 7 18 10 21 8 23 5h36l20-3 9-1-5 5-15 8-20 6-15 3-19 2h-27l-23-3-19-5-15-6-15-8-11-8-12-11-10-13-4-6 1-3 12-9 14-12 11-13z" fill="#907F72"/>
<path transform="translate(1091,1047)" d="m0 0 6 2 9 6 7 7 10 14 12 25 6 19 5 24 2 17v16l-1 3-8-1-18-7-15-8-9-9-4-8-6-16-5-18v-28l3-20 4-16h2z" fill="#FCFCFA"/>
<path transform="translate(659,805)" d="m0 0 4 2 14 14 11 15 7 12 8 19 6 20 3 17 1 9v30l-3 19 1 6 7 16 3 11 1 6v13l-2-3-5-20-7-18-7 15-8 13-9 10h-2l9 15 4 7-1 2-9-10-6-9-7 1-15 4-22 2-4 1 15 11 19 12 7 4-1 2-15-6-18-11-13-11-3-2-20-4-17-5-18-8-16-10-14-11-15-14-11-14-9-14-8-15-7-19-3-12-1-8v-17l3-15 2-4h2v26l4 19 6 18 9 19 10 15 9 11 11 12 12 10 15 10 16 8 13 5 17 4 8 1h28l15-3 14-7 8-9 7-12 6-17 3-14 1-7v-29l-3-21-6-21-6-16-10-20-9-15-9-12z" fill="#050505"/>
<path transform="translate(336,732)" d="m0 0 15 1 44 8 4 2 1 3 1 12v10l-2 17-3 9-5 3-28 8-16 4-18 2-1-5v-35l3-22 4-15z" fill="#FBFAF8"/>
<path transform="translate(190,1172)" d="m0 0h3v14l20-2h59l16 2 33 2 43 4 16 1v-10l5 3-1 8 10 1-1 2h-9v16l-2 27-3 44-2 33h10l-1 4-9 1 1 28-4-2-1-2v-6h-2v-17l-11 1h-84l-20-1-6-1-29-2-28-4v25h-5l-1-11v-16l-10-3-6-3-1-4 4 2 7 3 6 1-1-17v-75l1-28-2 1h-8l1-3 10-2zm3 17-1 1-1 24v86l1 11 1 1 13 2 14 1 5 1 53 3h92l1-1 2-29 1-5 5-71v-16h-16v20l7 2 1 2-9-2-1 13-1 27-1 13-2 1 1-26v-29l-8-2h-5v-2l15 1v-17l-1-1-26-2-5-1-27-2-16-2-10-1z" fill="#A34543"/>
<path transform="translate(1360,994)" d="m0 0h2l2 10v10l-4 18-6 11-9 10-11 7-12 4-5 1h-36l-15-4-19-8-5-4-7-10-6-5v-2l26-15 20-10 2 1-14 11-13 8-1 1 26 3 10 4 2 2-7 1-21 1 16 2h13l17-2 23-7 12-6 8-7 6-10z" fill="#B2A69D"/>
<path transform="translate(287,757)" d="m0 0h6l2 1-1 9-5 33-6 16-7 13-7 10-10 23h-1l-3-24v-37l3-11 8-16 8-10 7-5z" fill="#B2A69D"/>
<path transform="translate(310,729)" d="m0 0 16 1 6 1-1 4-5 19-2 21v13l1 14v10h-25l-5-2-2-3 1-15 6-29 8-30z" fill="#F9F7F5"/>
<path transform="translate(287,1067)" d="m0 0 5 2 15 11 13 8 22 10 24 8 14 4 1 3-3 14v21l-6-2-16-10-20-13-12-11-3-2v-2l-4-2-12-13-13-17z" fill="#DEC6AF"/>
<path transform="translate(510,370)" d="m0 0h2l8 19 1 6-5 17-12 36-5 19-3 21-2 2-6-9-7-7-1-2v-8l10-38 11-33 8-19z" fill="#907F72"/>
<path transform="translate(403,628)" d="m0 0 8 1 6 5 5 10 2 8 1 12-2 14-5 12-9 10-4 2h-12l-6-5-3-8v-6h6l7-6 3-11-1-12-3-9-6-1 1-4 5-9z" fill="#F9F8F5"/>
<path transform="translate(719,1136)" d="m0 0h1v14l-3 13-5 4-13 4-21 4-21 3h-19l2-6 5-13 2-2 20-3 28-8z" fill="#907F72"/>
<path transform="translate(509,954)" d="m0 0 5 5 7 9 9 10 8 7 13 10 13 8 16 8 18 6 18 4 8 2 9 8 13 9 2 2-2 1h-13l-21-5-22-8-17-8-23-14-14-12-13-13-10-16-4-8z" fill="#907F72"/>
<path transform="translate(403,624)" d="m0 0 10 1 6 4 6 9 4 11v22l-5 17-7 11-9 7-2 1h-12l-10-6-9-11-2-6 3-6 2-3 3-18 5-16 5-10 7-6zm0 4-7 3-6 10v3l6 1 3 9 1 12-3 11-7 6h-6l1 10 4 6 4 3h12l6-4 7-8 5-12 2-17-2-14-4-10-6-7-5-2z" fill="#060605"/>
<path transform="translate(1434,1035)" d="m0 0h6l12 9 16 16 6 5 1 3-3 7-3 3-3 1h-11l-7-3-15-8-10-4-6-5-1-6 5-8h2v-2z" fill="#FFF9DA"/>
<path transform="translate(1177,1040)" d="m0 0 2 1-11 10-12 12 9-5 11-10 1 3-2 9v8l-8 11-10 6-7 2-7-1-6-5-2-4-1-9-5-8-10-8 1-4h32l14-3z" fill="#DCC4AE"/>
<path transform="translate(1850,1166)" d="m0 0h18l13 7 6 7 4 7 1 8-10 5-7 2h-21l-8-5v-2h-2l-3-7v-11l3-6z" fill="#92796D"/>
<path transform="translate(403,744)" d="m0 0 7 1 16 5 12 5 6 4 1 5-7 8-8 6-14 8-16 8-2-1 3-6 3-19z" fill="#F9F7F5"/>
<path transform="translate(1709,1170)" d="m0 0h5l-3 6-9 8-10 5-22 2-19 1-60 1h-20l-11-1-5-3-2-3 15 3h32l20-3 37-6 33-5z" fill="#E0C8B1"/>
<path transform="translate(1139,983)" d="m0 0 7 1 6 7 2 5v14l-4 10-5 6-5 2h-10l-6-4-3-5v-10l4-11 6-10 5-4z" fill="#070706"/>
<path transform="translate(1200,862)" d="m0 0 3 3 3 6-1 5-11 17-9 17-6 16-2 8-8 1-4-6v-11l11-21 14-20z" fill="#82C0D7"/>
<path transform="translate(256,796)" d="m0 0 7 6 12 10 5 3 1 5-6 10-8 13-8 19h-1l-3-24v-37z" fill="#907F72"/>
<path transform="translate(675,1015)" d="m0 0 5 1 6 9-3 5-13 8-13 5-18-12-9-7v-1l18-2 14-2z" fill="#907F72"/>
<path transform="translate(1275,1153)" d="m0 0 4 2 10 9 7 4 13 4 3 1h17l9-5 5-2 3-3v7l-3 8-6 4-9 2h-19l-11-3-10-5-7-7-6-9z" fill="#8F8172"/>
<path transform="translate(1424,1082)" d="m0 0h11l12 3 9 2 5 3-1 5-5 4-12 4-15 3h-5l-3-3-2-8v-8l4-4z" fill="#FFF9DA"/>
<path transform="translate(1584,1216)" d="m0 0h20l13 4 4 3v2l5 2 2 1 2-5 5-5 4-2h15l4 2-14 1-7 3-5 6-2 8h-3l-5-6-15-7-7-2h-20l-21 6-29 11-25 12-5-1 2-4 21-10 10-9 4-7 1 4-2 4h-2l-2 4-4 2h3l25-10 18-5z" fill="#0E0C0C"/>
<path transform="translate(300,1210)" d="m0 0h2v27h7l3 3 2 3v21h-4l-1-21-1-3-5 1-1 22h-3v-4l-5 3h-7l-5-4 1-4 6 4 6-1 1-3-12-3-5-2-1 4-1 1h-8l-3 1-4-4-2-3v-18h2l2 17 3 1v-11h4l2 14 3-1 2-11 3 1v2h2l2-5 4-3 5 1 1 3v7l-2-4-1-4h-3v2h-2l-1 4-2 1-1 3 10 2 5 3v-39z" fill="#A24543"/>
<path transform="translate(1767,1105)" d="m0 0h14l-2 4-8 5h-2v2l-17 8-10 3h-8l-2-6-4-11-1-3 27-1z" fill="#F7F4F0"/>
<path transform="translate(540,284)" d="m0 0h8v1l-36 8-49 12-30 8-36 12-34 15-16 8-7 4-3-1 10-7 14-8 34-15 23-8 26-8 36-9 39-8z" fill="#050505"/>
<path transform="translate(324,897)" d="m0 0h10l8 4 6 7 3 9-2 12-4-1-7-6-9-5-11-4-3-3 1-7 6-5z" fill="#B9ACA2"/>
<path transform="translate(1850,1166)" d="m0 0h18l13 7 6 7 4 7 1 8-10 5-7 2h-21l-8-5v-2h-2l-3-7v-11l3-6zm6 4-5 2-5 6v9l3 6 8 5h16l12-4 1-5-6-9-7-6-7-3z" fill="#090808"/>
<path transform="translate(1466,1107)" d="m0 0h9l1 4-3 13-6 9-4 3-8 1-3-2-3-6-5-4 2-4 5-3 6-7 5-3z" fill="#FFF9DA"/>
<path transform="translate(1079,1159)" d="m0 0 6 2 15 7 16 5 10 5 19 6 9 3-2 4h-19l-21-8-19-10-11-9z" fill="#77C86A"/>
<path transform="translate(1691,1045)" d="m0 0 3 1 6 29 1 10-22-7-1-3 4-16 5-9z" fill="#F4F2EF"/>
<path transform="translate(635,1158)" d="m0 0h4l-2 5-8 13-8 9-1-2-4-2-11-14-2-4v-4h20z" fill="#907F72"/>
<path transform="translate(269,1277)" d="m0 0h6l4 3 1 3v11l-7 10-6 3-5-1-4-6v-8l2-7 5-6z" fill="#F7F4F0"/>
<path transform="translate(1500,1080)" d="m0 0h1l1 10 4 8 9 27 7 25-1 2-10-13-7-14-4-14-1-6v-19z" fill="#D9C1AC"/>
<path transform="translate(249,741)" d="m0 0 4 2 5 2 7 19-1 5-6 10-4 9h-2l-2-14-1-13z" fill="#F3F0EC"/>
<path transform="translate(635,675)" d="m0 0 4 1-41 14-40 14-31 13-7 2v-4l19-9 27-10 36-12z" fill="#050505"/>
<path transform="translate(213,1197)" d="m0 0h10l3 5v5l-3-1v-3l-9-1-8 9-4 10-1 4v21l4 5 2 1 9-1 6-5 3-7h3v6l-4 6-8 5h-12l-6-4-3-5v-17l4-14 6-12z" fill="#A34543"/>
<path transform="translate(1243,1057)" d="m0 0 5 1 15 6 15 4v10l-1 10-1-2-9-3-8-6-3-5-4-2-7-9-2-1z" fill="#8F8171"/>
<path transform="translate(1143,988)" d="m0 0 3 1 4 10-1 11-5 10-5 4h-8l-5-5 1-5 3-1v-2l6-4 4-7z" fill="#F6F4F1"/>
<path transform="translate(1507,1181)" d="m0 0h11l12 2 1 7-7 6-19 8h10l14 2 6 3 3 3-1 4-2-4-5-3h-25l-18 1-1-3 8-4 12-4 16-8 5-2-3-3-17-1z" fill="#0B0A09"/>
<path transform="translate(1543,1064)" d="m0 0h1l1 8 5 8 6 14 4 11v12l-2 2-7-8-6-12-2-12z" fill="#D8C1AC"/>
<path transform="translate(284,828)" d="m0 0 4 1 1 5-5 7-2 10-6 8-5 15-3 14h-6l1-9 6-20 10-24z" fill="#F5F3EF"/>
<path transform="translate(286,848)" d="m0 0h10l6 3 4 5 2 4 1 6v8l-3-1-4-6-10-5-12-3-1-5 5-5z" fill="#BCAEA3"/>
<path transform="translate(1773,1039)" d="m0 0h19l13 3 12 6 9 8 3 5-1 3-8-9-12-7-8-3-6-1h-20l-14 3-12 5-8 7h-3l1-4 5-5 8-5 11-4z" fill="#0B0A09"/>
<path transform="translate(218,1271)" d="m0 0h13l7 2 6 6v7l-8 9-4 3 21 1-1 3-21 2h-19v-3l15-5 9-7 4-2v-8l-8-4h-15l-5 2-1 2h-3l1-5 2-2z" fill="#A24341"/>
<path transform="translate(1567,1125)" d="m0 0h2v9l-3 16v4l7-4 16-6 14-5 2 1-8 5-34 17h-4l-1-6 6-24z" fill="#080807"/>
<path transform="translate(261,886)" d="m0 0 1 2 7 1 6 5 3 12v10h-3l-4-5-11-7-2 1 1-9z" fill="#B9ABA1"/>
<path transform="translate(333,1239)" d="m0 0h1v26l-13 1-2-2v-13l2-5 5-3h5z" fill="#A65854"/>
<path transform="translate(252,1232)" d="m0 0h3v25l-11-2-4-5v-8l3-7 1-2z" fill="#A24341"/>
<path transform="translate(1176,1048)" d="m0 0 1 3-2 9v8l-8 11-10 6-6-1v-4l13-12 6-11 2-5z" fill="#AFA39A"/>
<path transform="translate(524,739)" d="m0 0h86l10 1-3 2-58 1h-21l-14-1z" fill="#050505"/>
<path transform="translate(362,1204)" d="m0 0h1v13l7 1 1 3-6-1-3-1v13l-1 27-1 13-3 1v-26l1-29-13-2v-2h9l6 1v-9z" fill="#A2514D"/>
<path transform="translate(703,982)" d="m0 0 2 1-1 9-5 14-4 8-5 8-3-1-5-8v-2l8-7 7-11z" fill="#907F72"/>
<path transform="translate(309,1273)" d="m0 0h16l5 4 1 7-7 7 8 6 1 2v7h-2l-2 5-7 3h-7l-4-4h12l5-4v-9l-8-4-10-2v-3l12-1 4-1v-2h2l-2-6-4-2h-13l-3 1 1-3z" fill="#A24543"/>
<path transform="translate(495,496)" d="m0 0 4 4 14 22v1l-19-1z" fill="#907F72"/>
<path transform="translate(1079,1159)" d="m0 0 6 2 15 7 8 2v2h2v3l6 3 1 4-5 1-19-10-11-9z" fill="#81C0CC"/>
<path transform="translate(1758,1115)" d="m0 0h11l-4 3-18 8-5 1h-8l-2-6v-2l15-3z" fill="#D6BFAA"/>
<path transform="translate(236,1195)" d="m0 0h2v29l-2 21-2 13-3 1v-15l1-4 2-28z" fill="#A24745"/>
<path transform="translate(537,347)" d="m0 0 2 1-9 16-5 12-3-3-5-12 2-4 17-9z" fill="#EDEAE5"/>
<path transform="translate(269,1277)" d="m0 0h6l4 3 1 3v11l-7 10-6 3-5-1-4-6v-8l2-7 5-6zm-1 3v2l-3 1-4 7v9l4 5 4-1 7-8 1-3v-7l-3-5z" fill="#A24745"/>
<path transform="translate(1176,1071)" d="m0 0 4 5 1 1v6l-1 2h-2v2l-11 6-7 1-12-1 4-2 9-3 8-5 5-7z" fill="#8B8B70"/>
<path transform="translate(1771,1060)" d="m0 0h14l10 3 8 4v2l4 2 5 6v2h-2l-5-5-11-7-7-2h-17l-10 3h-3l2-4 6-3z" fill="#0C0B0A"/>
<path transform="translate(1553,1186)" d="m0 0 22 4h72l10-1h27v1l-33 2-60 1h-20l-11-1-5-3z" fill="#9F9085"/>
<path transform="translate(1095,1080)" d="m0 0h10l5 4 1 9-2 4-4-1-2-3v-3l-10-3-2-1 2-4z" fill="#8DC2D7"/>
<path transform="translate(1857,1171)" d="m0 0h9l8 4v4l-7 4-7-1-4-4v-6z" fill="#F2E9CF"/>
<path transform="translate(365,1117)" d="m0 0 5 1v8l1 6-2 3-5-1v-2l-4-2-3-9z" fill="#B4A8A0"/>
<path transform="translate(338,1241)" d="m0 0 3 1 1 16h3v-6l3-2 1 8 3 1v-16h2v18l-2 3-6-1-4 1-3-4-1-7z" fill="#A03E3C"/>
<path transform="translate(530,770)" d="m0 0 6 2 53 24 5 4-5-1-40-17-16-8z" fill="#050505"/>
<path transform="translate(264,741)" d="m0 0h3v2h2l4 6 4 7-6 6h-3l-5-15v-5z" fill="#EDE9E4"/>
<path transform="translate(290,1272)" d="m0 0h4l2 25 1 12h-3l-4-16z" fill="#A45853"/>
<path transform="translate(289,1237)" d="m0 0h3l2 4 2-2 2 1v12l-5-2-8-2-2-1 1-4h2l1-4h2z" fill="#F1ECE4"/>
<path transform="translate(1240,1034)" d="m0 0h34l6 1-3 2-38 1-2-1v-2z" fill="#050505"/>
<path transform="translate(1194,1009)" d="m0 0h5l-3 3-27 9-5-1 3-3 14-5z" fill="#050505"/>
<path transform="translate(325,1246)" d="m0 0 5 1v12l-3 3h-5l-1-2v-7z" fill="#F8F5F0"/>
<path transform="translate(306,1237)" d="m0 0 5 1 3 5v21h-4l-1-21-1-3-3-1z" fill="#A95954"/>
<path transform="translate(247,1236)" d="m0 0 4 2 1 2v11l-1 1h-5l-2-2v-10z" fill="#F3EEE8"/>
<path transform="translate(1758,1115)" d="m0 0h11l-4 3-11 5-3-1 2-2-11-1 1-2z" fill="#D8C1AC"/>
<path transform="translate(1250,1031)" d="m0 0 21 1 14 3 2 2h-10l-3-2-32-1v-1z" fill="#907F72"/>
<path transform="translate(1176,925)" d="m0 0 2 1-1 8-8 1-3-5 3-3z" fill="#87986E"/>
<path transform="translate(400,1073)" d="m0 0 1 4-8 10-7 13-2-4 6-11 5-6z" fill="#E9E2D9"/>
<path transform="translate(263,1014)" d="m0 0h2l4 6 4 11v5l-3-1-5-12z" fill="#EDE9E2"/>
<path transform="translate(384,1187)" d="m0 0 5 2 10 6-3 2-3-1-9-2z" fill="#D9CEC0"/>
<path transform="translate(1253,1018)" d="m0 0 3 1-2 3-11 6-3 2-3-1 4-4z" fill="#907F72"/>
<path transform="translate(1116,1178)" d="m0 0 7 3 1 5 4 1-1 2-12-5z" fill="#8C8970"/>
<path transform="translate(1741,1119)" d="m0 0h14l-3 3-7 1-10-1 1-2z" fill="#B4A8A0"/>
<path transform="translate(1553,1186)" d="m0 0 22 4v1h-18z" fill="#BAAA9D"/>
<path transform="translate(352,1156)" d="m0 0 8 1 7 3 1 2-10-2-10-1z" fill="#C7B5A4"/>
<path transform="translate(230,1297)" d="m0 0 2 1 19 1v1l-18 1-9 1 3-3z" fill="#BAAA9C"/>
<path transform="translate(1553,1170)" d="m0 0h5l1 3-1 2h-6l-1-4z" fill="#0D0C0B"/>
<path transform="translate(1537,1219)" d="m0 0 1 4-2 4h-2l-2 4-4 2 3-5 5-6z" fill="#26221F"/>
<path transform="translate(1604,1219)" d="m0 0 13 1 4 4-9-2-8-2z" fill="#938376"/>
<path transform="translate(400,1073)" d="m0 0 1 4-6 7-1-3 4-6z" fill="#E3DCD3"/>
<path transform="translate(1249,1184)" d="m0 0h3l-1 4h-10l3-2z" fill="#9AB3B5"/>
</svg>
